<mxfile host="app.diagrams.net" modified="2023-06-08T22:08:09.529Z" agent="Mozilla/5.0 (Windows NT 10.0; Win64; x64) AppleWebKit/537.36 (KHTML, like Gecko) Chrome/112.0.0.0 Safari/537.36 OPR/98.0.0.0" etag="YM1fc37waQkLF0yrkyVB" version="21.3.8" type="device">
  <diagram id="C5RBs43oDa-KdzZeNtuy" name="Page-1">
    <mxGraphModel dx="6320" dy="3358" grid="1" gridSize="10" guides="1" tooltips="1" connect="1" arrows="1" fold="1" page="1" pageScale="1" pageWidth="827" pageHeight="1169" math="0" shadow="0">
      <root>
        <mxCell id="WIyWlLk6GJQsqaUBKTNV-0" />
        <mxCell id="WIyWlLk6GJQsqaUBKTNV-1" parent="WIyWlLk6GJQsqaUBKTNV-0" />
        <mxCell id="LSPWSXQBOcd98Ju-pocV-0" value="GameService" style="swimlane;fontStyle=0;childLayout=stackLayout;horizontal=1;startSize=30;horizontalStack=0;resizeParent=1;resizeParentMax=0;resizeLast=0;collapsible=1;marginBottom=0;whiteSpace=wrap;html=1;" parent="WIyWlLk6GJQsqaUBKTNV-1" vertex="1">
          <mxGeometry x="-349" y="60" width="199" height="680" as="geometry" />
        </mxCell>
        <mxCell id="LSPWSXQBOcd98Ju-pocV-4" value="" style="endArrow=none;html=1;rounded=0;entryX=0.996;entryY=-0.003;entryDx=0;entryDy=0;entryPerimeter=0;exitX=0.001;exitY=-0.004;exitDx=0;exitDy=0;exitPerimeter=0;" parent="LSPWSXQBOcd98Ju-pocV-0" source="LSPWSXQBOcd98Ju-pocV-5" target="LSPWSXQBOcd98Ju-pocV-5" edge="1">
          <mxGeometry width="50" height="50" relative="1" as="geometry">
            <mxPoint x="-4" y="190" as="sourcePoint" />
            <mxPoint x="46" y="140" as="targetPoint" />
          </mxGeometry>
        </mxCell>
        <mxCell id="OVD1bzsGRKaOEKY8W8DL-124" value="- _gameService: readonly IGameRepository" style="text;html=1;strokeColor=none;fillColor=none;align=left;verticalAlign=middle;whiteSpace=wrap;rounded=0;" vertex="1" parent="LSPWSXQBOcd98Ju-pocV-0">
          <mxGeometry y="30" width="199" height="40" as="geometry" />
        </mxCell>
        <mxCell id="OVD1bzsGRKaOEKY8W8DL-125" value="+ GameService(_gameRepository: IGameRepository)" style="text;html=1;strokeColor=none;fillColor=none;align=left;verticalAlign=middle;whiteSpace=wrap;rounded=0;" vertex="1" parent="LSPWSXQBOcd98Ju-pocV-0">
          <mxGeometry y="70" width="199" height="60" as="geometry" />
        </mxCell>
        <mxCell id="LSPWSXQBOcd98Ju-pocV-5" value="+ GetAll(string console): Result&amp;lt;List&amp;lt;Game&amp;gt;&amp;gt;" style="text;strokeColor=none;fillColor=none;align=left;verticalAlign=middle;spacingLeft=4;spacingRight=4;overflow=hidden;points=[[0,0.5],[1,0.5]];portConstraint=eastwest;rotatable=0;whiteSpace=wrap;html=1;" parent="LSPWSXQBOcd98Ju-pocV-0" vertex="1">
          <mxGeometry y="130" width="199" height="50" as="geometry" />
        </mxCell>
        <mxCell id="OVD1bzsGRKaOEKY8W8DL-101" value="+ GetGame(name: string, console: string): Result&amp;lt;Game&amp;gt;" style="text;html=1;strokeColor=none;fillColor=none;align=left;verticalAlign=middle;whiteSpace=wrap;rounded=0;" vertex="1" parent="LSPWSXQBOcd98Ju-pocV-0">
          <mxGeometry y="180" width="199" height="50" as="geometry" />
        </mxCell>
        <mxCell id="OVD1bzsGRKaOEKY8W8DL-102" value="+ GetGameID(console: string, name: string): Result&amp;lt;int?&amp;gt;" style="text;html=1;strokeColor=none;fillColor=none;align=left;verticalAlign=middle;whiteSpace=wrap;rounded=0;" vertex="1" parent="LSPWSXQBOcd98Ju-pocV-0">
          <mxGeometry y="230" width="199" height="30" as="geometry" />
        </mxCell>
        <mxCell id="OVD1bzsGRKaOEKY8W8DL-151" value="+ Filter(keyword: string?, mainFilter: string?, genre: string?,&amp;nbsp; toFilter: List&amp;lt;Game&amp;gt;): Result&amp;lt;List&amp;lt;Game&amp;gt;&amp;gt;" style="text;html=1;strokeColor=none;fillColor=none;align=left;verticalAlign=middle;whiteSpace=wrap;rounded=0;" vertex="1" parent="LSPWSXQBOcd98Ju-pocV-0">
          <mxGeometry y="260" width="199" height="60" as="geometry" />
        </mxCell>
        <mxCell id="OVD1bzsGRKaOEKY8W8DL-103" value="+ GetRecommendations(username: string, minimum: double, maximum: double): Result&amp;lt;List&amp;lt;Game&amp;gt;&amp;gt;" style="text;html=1;strokeColor=none;fillColor=none;align=left;verticalAlign=middle;whiteSpace=wrap;rounded=0;" vertex="1" parent="LSPWSXQBOcd98Ju-pocV-0">
          <mxGeometry y="320" width="199" height="70" as="geometry" />
        </mxCell>
        <mxCell id="OVD1bzsGRKaOEKY8W8DL-104" value="+ AddGame(console: string, name: string, developer: string,releaseDate: DateTime , genre: string, desc: string, urlGame: string, urlPage: string, consoleID: int?): void" style="text;html=1;strokeColor=none;fillColor=none;align=left;verticalAlign=middle;whiteSpace=wrap;rounded=0;" vertex="1" parent="LSPWSXQBOcd98Ju-pocV-0">
          <mxGeometry y="390" width="199" height="90" as="geometry" />
        </mxCell>
        <mxCell id="OVD1bzsGRKaOEKY8W8DL-105" value="+ RemoveGame(console: string, tbID: string): void" style="text;html=1;strokeColor=none;fillColor=none;align=left;verticalAlign=middle;whiteSpace=wrap;rounded=0;" vertex="1" parent="LSPWSXQBOcd98Ju-pocV-0">
          <mxGeometry y="480" width="199" height="40" as="geometry" />
        </mxCell>
        <mxCell id="OVD1bzsGRKaOEKY8W8DL-106" value="&amp;nbsp;+ SetRating(consoleID: int?, gameID: int?, console: string): void" style="text;html=1;strokeColor=none;fillColor=none;align=left;verticalAlign=middle;whiteSpace=wrap;rounded=0;" vertex="1" parent="LSPWSXQBOcd98Ju-pocV-0">
          <mxGeometry y="520" width="199" height="40" as="geometry" />
        </mxCell>
        <mxCell id="OVD1bzsGRKaOEKY8W8DL-107" value="+ CalculateNumberOfReviews( consoleID: int?, gameID: int?, console: string): void" style="text;html=1;strokeColor=none;fillColor=none;align=left;verticalAlign=middle;whiteSpace=wrap;rounded=0;" vertex="1" parent="LSPWSXQBOcd98Ju-pocV-0">
          <mxGeometry y="560" width="199" height="60" as="geometry" />
        </mxCell>
        <mxCell id="OVD1bzsGRKaOEKY8W8DL-152" value="+&amp;nbsp; GetStatistics(desiredStatistic: string): Result&amp;lt;List&amp;lt;Game&amp;gt;&amp;gt;" style="text;html=1;strokeColor=none;fillColor=none;align=left;verticalAlign=middle;whiteSpace=wrap;rounded=0;" vertex="1" parent="LSPWSXQBOcd98Ju-pocV-0">
          <mxGeometry y="620" width="199" height="60" as="geometry" />
        </mxCell>
        <mxCell id="LSPWSXQBOcd98Ju-pocV-10" value="&amp;lt;&amp;lt;interface&amp;gt;&amp;gt;&lt;br&gt;IGameService" style="swimlane;fontStyle=0;childLayout=stackLayout;horizontal=1;startSize=30;horizontalStack=0;resizeParent=1;resizeParentMax=0;resizeLast=0;collapsible=1;marginBottom=0;whiteSpace=wrap;html=1;" parent="WIyWlLk6GJQsqaUBKTNV-1" vertex="1">
          <mxGeometry x="-680" y="245" width="170" height="50" as="geometry" />
        </mxCell>
        <mxCell id="LSPWSXQBOcd98Ju-pocV-12" value="GamesLibrary" style="swimlane;fontStyle=0;childLayout=stackLayout;horizontal=1;startSize=30;horizontalStack=0;resizeParent=1;resizeParentMax=0;resizeLast=0;collapsible=1;marginBottom=0;whiteSpace=wrap;html=1;" parent="WIyWlLk6GJQsqaUBKTNV-1" vertex="1">
          <mxGeometry x="-349" y="-680" width="196" height="620" as="geometry" />
        </mxCell>
        <mxCell id="LSPWSXQBOcd98Ju-pocV-13" value="- _connectionString: readonly string" style="text;html=1;strokeColor=none;fillColor=none;align=left;verticalAlign=middle;whiteSpace=wrap;rounded=0;" parent="LSPWSXQBOcd98Ju-pocV-12" vertex="1">
          <mxGeometry y="30" width="196" height="40" as="geometry" />
        </mxCell>
        <mxCell id="LSPWSXQBOcd98Ju-pocV-14" value="+ GamesLibrary(string con)" style="text;html=1;strokeColor=none;fillColor=none;align=left;verticalAlign=middle;whiteSpace=wrap;rounded=0;" parent="LSPWSXQBOcd98Ju-pocV-12" vertex="1">
          <mxGeometry y="70" width="196" height="30" as="geometry" />
        </mxCell>
        <mxCell id="LSPWSXQBOcd98Ju-pocV-15" value="- GetAll(string console): List&amp;lt;GameDTO&amp;gt;" style="text;strokeColor=none;fillColor=none;align=left;verticalAlign=middle;spacingLeft=4;spacingRight=4;overflow=hidden;points=[[0,0.5],[1,0.5]];portConstraint=eastwest;rotatable=0;whiteSpace=wrap;html=1;" parent="LSPWSXQBOcd98Ju-pocV-12" vertex="1">
          <mxGeometry y="100" width="196" height="50" as="geometry" />
        </mxCell>
        <mxCell id="LSPWSXQBOcd98Ju-pocV-16" value="+ GetGame(name: string, console: string): GameDTO?" style="text;html=1;strokeColor=none;fillColor=none;align=left;verticalAlign=middle;whiteSpace=wrap;rounded=0;" parent="LSPWSXQBOcd98Ju-pocV-12" vertex="1">
          <mxGeometry y="150" width="196" height="50" as="geometry" />
        </mxCell>
        <mxCell id="OVD1bzsGRKaOEKY8W8DL-88" value="+ GetGameID(console: string, name: string): int?" style="text;html=1;strokeColor=none;fillColor=none;align=left;verticalAlign=middle;whiteSpace=wrap;rounded=0;" vertex="1" parent="LSPWSXQBOcd98Ju-pocV-12">
          <mxGeometry y="200" width="196" height="30" as="geometry" />
        </mxCell>
        <mxCell id="OVD1bzsGRKaOEKY8W8DL-89" value="+ GetRecommendations(username: string, minimum: double, maximum: double): List&amp;lt;GameDTO&amp;gt;" style="text;html=1;strokeColor=none;fillColor=none;align=left;verticalAlign=middle;whiteSpace=wrap;rounded=0;" vertex="1" parent="LSPWSXQBOcd98Ju-pocV-12">
          <mxGeometry y="230" width="196" height="70" as="geometry" />
        </mxCell>
        <mxCell id="LSPWSXQBOcd98Ju-pocV-17" value="- CreateGameDTO(reader: SqlDataReader&lt;br&gt;): GameDTO" style="text;html=1;strokeColor=none;fillColor=none;align=left;verticalAlign=middle;whiteSpace=wrap;rounded=0;" parent="LSPWSXQBOcd98Ju-pocV-12" vertex="1">
          <mxGeometry y="300" width="196" height="60" as="geometry" />
        </mxCell>
        <mxCell id="LSPWSXQBOcd98Ju-pocV-18" value="+ AddGame(console: string, name: string, developer: string,releaseDate: DateTime , genre: string, desc: string, urlGame: string, urlPage: string, consoleID: int?): void" style="text;html=1;strokeColor=none;fillColor=none;align=left;verticalAlign=middle;whiteSpace=wrap;rounded=0;" parent="LSPWSXQBOcd98Ju-pocV-12" vertex="1">
          <mxGeometry y="360" width="196" height="90" as="geometry" />
        </mxCell>
        <mxCell id="LSPWSXQBOcd98Ju-pocV-19" value="+ RemoveGame(console: string, tbID: string): void" style="text;html=1;strokeColor=none;fillColor=none;align=left;verticalAlign=middle;whiteSpace=wrap;rounded=0;" parent="LSPWSXQBOcd98Ju-pocV-12" vertex="1">
          <mxGeometry y="450" width="196" height="40" as="geometry" />
        </mxCell>
        <mxCell id="LSPWSXQBOcd98Ju-pocV-20" value="" style="endArrow=none;html=1;rounded=0;exitX=-0.002;exitY=-0.03;exitDx=0;exitDy=0;exitPerimeter=0;entryX=1.003;entryY=0.003;entryDx=0;entryDy=0;entryPerimeter=0;" parent="LSPWSXQBOcd98Ju-pocV-12" source="LSPWSXQBOcd98Ju-pocV-15" target="LSPWSXQBOcd98Ju-pocV-15" edge="1">
          <mxGeometry width="50" height="50" relative="1" as="geometry">
            <mxPoint x="-54" y="401" as="sourcePoint" />
            <mxPoint x="-4" y="351" as="targetPoint" />
          </mxGeometry>
        </mxCell>
        <mxCell id="OVD1bzsGRKaOEKY8W8DL-92" value="&amp;nbsp;+ SetRating(consoleID: int?, gameID: int?, console: string): void" style="text;html=1;strokeColor=none;fillColor=none;align=left;verticalAlign=middle;whiteSpace=wrap;rounded=0;" vertex="1" parent="LSPWSXQBOcd98Ju-pocV-12">
          <mxGeometry y="490" width="196" height="40" as="geometry" />
        </mxCell>
        <mxCell id="OVD1bzsGRKaOEKY8W8DL-93" value="+ CalculateNumberOfReviews( consoleID: int?, gameID: int?, console: string): void" style="text;html=1;strokeColor=none;fillColor=none;align=left;verticalAlign=middle;whiteSpace=wrap;rounded=0;" vertex="1" parent="LSPWSXQBOcd98Ju-pocV-12">
          <mxGeometry y="530" width="196" height="60" as="geometry" />
        </mxCell>
        <mxCell id="OVD1bzsGRKaOEKY8W8DL-91" value="+ GetAllGames(): List&amp;lt;GameDTO&amp;gt;" style="text;html=1;strokeColor=none;fillColor=none;align=left;verticalAlign=middle;whiteSpace=wrap;rounded=0;" vertex="1" parent="LSPWSXQBOcd98Ju-pocV-12">
          <mxGeometry y="590" width="196" height="30" as="geometry" />
        </mxCell>
        <mxCell id="LSPWSXQBOcd98Ju-pocV-21" value="" style="endArrow=classic;html=1;rounded=0;entryX=0.5;entryY=0;entryDx=0;entryDy=0;exitX=0.5;exitY=1;exitDx=0;exitDy=0;" parent="WIyWlLk6GJQsqaUBKTNV-1" target="LSPWSXQBOcd98Ju-pocV-0" edge="1" source="OVD1bzsGRKaOEKY8W8DL-91">
          <mxGeometry width="50" height="50" relative="1" as="geometry">
            <mxPoint x="-251" y="-40" as="sourcePoint" />
            <mxPoint x="-210" y="32" as="targetPoint" />
          </mxGeometry>
        </mxCell>
        <mxCell id="LSPWSXQBOcd98Ju-pocV-22" value="&amp;lt;&amp;lt;interface&amp;gt;&amp;gt;&lt;br&gt;IGameRepository" style="swimlane;fontStyle=0;childLayout=stackLayout;horizontal=1;startSize=30;horizontalStack=0;resizeParent=1;resizeParentMax=0;resizeLast=0;collapsible=1;marginBottom=0;whiteSpace=wrap;html=1;" parent="WIyWlLk6GJQsqaUBKTNV-1" vertex="1">
          <mxGeometry x="-680" y="102" width="170" height="50" as="geometry" />
        </mxCell>
        <mxCell id="LSPWSXQBOcd98Ju-pocV-24" value="" style="endArrow=classic;html=1;rounded=0;entryX=0.5;entryY=0;entryDx=0;entryDy=0;" parent="WIyWlLk6GJQsqaUBKTNV-1" target="LSPWSXQBOcd98Ju-pocV-22" edge="1">
          <mxGeometry width="50" height="50" relative="1" as="geometry">
            <mxPoint x="-595" y="102" as="sourcePoint" />
            <mxPoint x="-509" y="-242.24" as="targetPoint" />
          </mxGeometry>
        </mxCell>
        <mxCell id="LSPWSXQBOcd98Ju-pocV-26" value="&amp;lt;&amp;lt;struct&amp;gt;&amp;gt;&lt;br&gt;GameDTO" style="swimlane;fontStyle=0;childLayout=stackLayout;horizontal=1;startSize=30;horizontalStack=0;resizeParent=1;resizeParentMax=0;resizeLast=0;collapsible=1;marginBottom=0;whiteSpace=wrap;html=1;" parent="WIyWlLk6GJQsqaUBKTNV-1" vertex="1">
          <mxGeometry x="-1050" y="60" width="170" height="360" as="geometry" />
        </mxCell>
        <mxCell id="LSPWSXQBOcd98Ju-pocV-27" value="+ ID: int" style="text;html=1;strokeColor=none;fillColor=none;align=left;verticalAlign=middle;whiteSpace=wrap;rounded=0;" parent="LSPWSXQBOcd98Ju-pocV-26" vertex="1">
          <mxGeometry y="30" width="170" height="30" as="geometry" />
        </mxCell>
        <mxCell id="LSPWSXQBOcd98Ju-pocV-28" value="+ Name: string" style="text;html=1;strokeColor=none;fillColor=none;align=left;verticalAlign=middle;whiteSpace=wrap;rounded=0;" parent="LSPWSXQBOcd98Ju-pocV-26" vertex="1">
          <mxGeometry y="60" width="170" height="30" as="geometry" />
        </mxCell>
        <mxCell id="LSPWSXQBOcd98Ju-pocV-29" value="+ Developer: string" style="text;html=1;strokeColor=none;fillColor=none;align=left;verticalAlign=middle;whiteSpace=wrap;rounded=0;" parent="LSPWSXQBOcd98Ju-pocV-26" vertex="1">
          <mxGeometry y="90" width="170" height="30" as="geometry" />
        </mxCell>
        <mxCell id="LSPWSXQBOcd98Ju-pocV-30" value="+ Release_Date: DateTime" style="text;html=1;strokeColor=none;fillColor=none;align=left;verticalAlign=middle;whiteSpace=wrap;rounded=0;" parent="LSPWSXQBOcd98Ju-pocV-26" vertex="1">
          <mxGeometry y="120" width="170" height="30" as="geometry" />
        </mxCell>
        <mxCell id="LSPWSXQBOcd98Ju-pocV-31" value="+ Genre: string" style="text;html=1;strokeColor=none;fillColor=none;align=left;verticalAlign=middle;whiteSpace=wrap;rounded=0;" parent="LSPWSXQBOcd98Ju-pocV-26" vertex="1">
          <mxGeometry y="150" width="170" height="30" as="geometry" />
        </mxCell>
        <mxCell id="LSPWSXQBOcd98Ju-pocV-32" value="+ Rating: double" style="text;html=1;strokeColor=none;fillColor=none;align=left;verticalAlign=middle;whiteSpace=wrap;rounded=0;" parent="LSPWSXQBOcd98Ju-pocV-26" vertex="1">
          <mxGeometry y="180" width="170" height="30" as="geometry" />
        </mxCell>
        <mxCell id="LSPWSXQBOcd98Ju-pocV-33" value="+ Description: string" style="text;html=1;strokeColor=none;fillColor=none;align=left;verticalAlign=middle;whiteSpace=wrap;rounded=0;" parent="LSPWSXQBOcd98Ju-pocV-26" vertex="1">
          <mxGeometry y="210" width="170" height="30" as="geometry" />
        </mxCell>
        <mxCell id="LSPWSXQBOcd98Ju-pocV-34" value="+ URL_Game: string" style="text;html=1;strokeColor=none;fillColor=none;align=left;verticalAlign=middle;whiteSpace=wrap;rounded=0;" parent="LSPWSXQBOcd98Ju-pocV-26" vertex="1">
          <mxGeometry y="240" width="170" height="30" as="geometry" />
        </mxCell>
        <mxCell id="LSPWSXQBOcd98Ju-pocV-35" value="+ URL_Page: string" style="text;html=1;strokeColor=none;fillColor=none;align=left;verticalAlign=middle;whiteSpace=wrap;rounded=0;" parent="LSPWSXQBOcd98Ju-pocV-26" vertex="1">
          <mxGeometry y="270" width="170" height="30" as="geometry" />
        </mxCell>
        <mxCell id="OVD1bzsGRKaOEKY8W8DL-153" value="+ Console_ID: int" style="text;html=1;strokeColor=none;fillColor=none;align=left;verticalAlign=middle;whiteSpace=wrap;rounded=0;" vertex="1" parent="LSPWSXQBOcd98Ju-pocV-26">
          <mxGeometry y="300" width="170" height="30" as="geometry" />
        </mxCell>
        <mxCell id="OVD1bzsGRKaOEKY8W8DL-154" value="+ Reviews: int" style="text;html=1;strokeColor=none;fillColor=none;align=left;verticalAlign=middle;whiteSpace=wrap;rounded=0;" vertex="1" parent="LSPWSXQBOcd98Ju-pocV-26">
          <mxGeometry y="330" width="170" height="30" as="geometry" />
        </mxCell>
        <mxCell id="LSPWSXQBOcd98Ju-pocV-71" value="&amp;lt;&amp;lt;interface&amp;gt;&amp;gt;&lt;br&gt;IConsoleService" style="swimlane;fontStyle=0;childLayout=stackLayout;horizontal=1;startSize=30;horizontalStack=0;resizeParent=1;resizeParentMax=0;resizeLast=0;collapsible=1;marginBottom=0;whiteSpace=wrap;html=1;" parent="WIyWlLk6GJQsqaUBKTNV-1" vertex="1">
          <mxGeometry x="475" y="244" width="170" height="50" as="geometry" />
        </mxCell>
        <mxCell id="LSPWSXQBOcd98Ju-pocV-73" value="ConsoleService" style="swimlane;fontStyle=0;childLayout=stackLayout;horizontal=1;startSize=30;horizontalStack=0;resizeParent=1;resizeParentMax=0;resizeLast=0;collapsible=1;marginBottom=0;whiteSpace=wrap;html=1;" parent="WIyWlLk6GJQsqaUBKTNV-1" vertex="1">
          <mxGeometry x="120" y="60" width="200" height="470" as="geometry" />
        </mxCell>
        <mxCell id="LSPWSXQBOcd98Ju-pocV-75" value="- _consoleService: readonly IConsoleRepository" style="text;html=1;strokeColor=none;fillColor=none;align=left;verticalAlign=middle;whiteSpace=wrap;rounded=0;" parent="LSPWSXQBOcd98Ju-pocV-73" vertex="1">
          <mxGeometry y="30" width="200" height="40" as="geometry" />
        </mxCell>
        <mxCell id="LSPWSXQBOcd98Ju-pocV-76" value="+ ConsoleService(_consoleRepository: IConsoleRepository)" style="text;html=1;strokeColor=none;fillColor=none;align=left;verticalAlign=middle;whiteSpace=wrap;rounded=0;" parent="LSPWSXQBOcd98Ju-pocV-73" vertex="1">
          <mxGeometry y="70" width="200" height="60" as="geometry" />
        </mxCell>
        <mxCell id="LSPWSXQBOcd98Ju-pocV-77" value="" style="endArrow=none;html=1;rounded=0;entryX=0.996;entryY=-0.003;entryDx=0;entryDy=0;entryPerimeter=0;exitX=0.001;exitY=-0.004;exitDx=0;exitDy=0;exitPerimeter=0;" parent="LSPWSXQBOcd98Ju-pocV-73" source="LSPWSXQBOcd98Ju-pocV-78" target="LSPWSXQBOcd98Ju-pocV-78" edge="1">
          <mxGeometry width="50" height="50" relative="1" as="geometry">
            <mxPoint x="-4" y="190" as="sourcePoint" />
            <mxPoint x="46" y="140" as="targetPoint" />
          </mxGeometry>
        </mxCell>
        <mxCell id="LSPWSXQBOcd98Ju-pocV-78" value="+ GetAll(): Result&amp;lt;List&amp;lt;Console&amp;gt;&amp;gt;" style="text;strokeColor=none;fillColor=none;align=left;verticalAlign=middle;spacingLeft=4;spacingRight=4;overflow=hidden;points=[[0,0.5],[1,0.5]];portConstraint=eastwest;rotatable=0;whiteSpace=wrap;html=1;" parent="LSPWSXQBOcd98Ju-pocV-73" vertex="1">
          <mxGeometry y="130" width="200" height="40" as="geometry" />
        </mxCell>
        <mxCell id="OVD1bzsGRKaOEKY8W8DL-114" value="+ GetConsoleByName(): Result&amp;lt;List&amp;lt;string&amp;gt;&amp;gt;" style="text;html=1;strokeColor=none;fillColor=none;align=left;verticalAlign=middle;whiteSpace=wrap;rounded=0;" vertex="1" parent="LSPWSXQBOcd98Ju-pocV-73">
          <mxGeometry y="170" width="200" height="40" as="geometry" />
        </mxCell>
        <mxCell id="OVD1bzsGRKaOEKY8W8DL-115" value="+ GetConsole(string model): Result&amp;lt;Console&amp;gt;" style="text;html=1;strokeColor=none;fillColor=none;align=left;verticalAlign=middle;whiteSpace=wrap;rounded=0;" vertex="1" parent="LSPWSXQBOcd98Ju-pocV-73">
          <mxGeometry y="210" width="200" height="60" as="geometry" />
        </mxCell>
        <mxCell id="OVD1bzsGRKaOEKY8W8DL-116" value="+ GetConsoleID(console: string): Result&amp;lt;int?&amp;gt;" style="text;html=1;strokeColor=none;fillColor=none;align=left;verticalAlign=middle;whiteSpace=wrap;rounded=0;" vertex="1" parent="LSPWSXQBOcd98Ju-pocV-73">
          <mxGeometry y="270" width="200" height="40" as="geometry" />
        </mxCell>
        <mxCell id="OVD1bzsGRKaOEKY8W8DL-117" value="+ AddConsole(type: string, model: string, manufacturer: string, releaseDate: DateTime, urlConsole: string,&amp;nbsp; controllerType: string, chatPlatform: string): void" style="text;html=1;strokeColor=none;fillColor=none;align=left;verticalAlign=middle;whiteSpace=wrap;rounded=0;" vertex="1" parent="LSPWSXQBOcd98Ju-pocV-73">
          <mxGeometry y="310" width="200" height="110" as="geometry" />
        </mxCell>
        <mxCell id="OVD1bzsGRKaOEKY8W8DL-118" value="+ RemoveConsole(string console): void" style="text;html=1;strokeColor=none;fillColor=none;align=left;verticalAlign=middle;whiteSpace=wrap;rounded=0;" vertex="1" parent="LSPWSXQBOcd98Ju-pocV-73">
          <mxGeometry y="420" width="200" height="50" as="geometry" />
        </mxCell>
        <mxCell id="LSPWSXQBOcd98Ju-pocV-83" value="&amp;lt;&amp;lt;interface&amp;gt;&amp;gt;&lt;br&gt;IConsoleLibrary" style="swimlane;fontStyle=0;childLayout=stackLayout;horizontal=1;startSize=30;horizontalStack=0;resizeParent=1;resizeParentMax=0;resizeLast=0;collapsible=1;marginBottom=0;whiteSpace=wrap;html=1;" parent="WIyWlLk6GJQsqaUBKTNV-1" vertex="1">
          <mxGeometry x="475" y="102" width="170" height="50" as="geometry" />
        </mxCell>
        <mxCell id="LSPWSXQBOcd98Ju-pocV-85" value="ConsoleLibrary" style="swimlane;fontStyle=0;childLayout=stackLayout;horizontal=1;startSize=30;horizontalStack=0;resizeParent=1;resizeParentMax=0;resizeLast=0;collapsible=1;marginBottom=0;whiteSpace=wrap;html=1;" parent="WIyWlLk6GJQsqaUBKTNV-1" vertex="1">
          <mxGeometry x="120" y="-510" width="200" height="450" as="geometry" />
        </mxCell>
        <mxCell id="LSPWSXQBOcd98Ju-pocV-86" value="- connectionString: readonly string" style="text;html=1;strokeColor=none;fillColor=none;align=left;verticalAlign=middle;whiteSpace=wrap;rounded=0;" parent="LSPWSXQBOcd98Ju-pocV-85" vertex="1">
          <mxGeometry y="30" width="200" height="30" as="geometry" />
        </mxCell>
        <mxCell id="LSPWSXQBOcd98Ju-pocV-87" value="" style="endArrow=none;html=1;rounded=0;entryX=0.996;entryY=-0.003;entryDx=0;entryDy=0;entryPerimeter=0;exitX=0.001;exitY=-0.004;exitDx=0;exitDy=0;exitPerimeter=0;" parent="LSPWSXQBOcd98Ju-pocV-85" source="LSPWSXQBOcd98Ju-pocV-89" target="LSPWSXQBOcd98Ju-pocV-89" edge="1">
          <mxGeometry width="50" height="50" relative="1" as="geometry">
            <mxPoint x="-4" y="190" as="sourcePoint" />
            <mxPoint x="46" y="140" as="targetPoint" />
          </mxGeometry>
        </mxCell>
        <mxCell id="LSPWSXQBOcd98Ju-pocV-88" value="+ ConsoleLibrary(connectionString: string)" style="text;html=1;strokeColor=none;fillColor=none;align=left;verticalAlign=middle;whiteSpace=wrap;rounded=0;" parent="LSPWSXQBOcd98Ju-pocV-85" vertex="1">
          <mxGeometry y="60" width="200" height="40" as="geometry" />
        </mxCell>
        <mxCell id="LSPWSXQBOcd98Ju-pocV-89" value="+ GetAll(): List&amp;lt;ConsoleDTO&amp;gt;" style="text;strokeColor=none;fillColor=none;align=left;verticalAlign=middle;spacingLeft=4;spacingRight=4;overflow=hidden;points=[[0,0.5],[1,0.5]];portConstraint=eastwest;rotatable=0;whiteSpace=wrap;html=1;" parent="LSPWSXQBOcd98Ju-pocV-85" vertex="1">
          <mxGeometry y="100" width="200" height="40" as="geometry" />
        </mxCell>
        <mxCell id="OVD1bzsGRKaOEKY8W8DL-112" value="+ GetConsoleByName(): List&amp;lt;string&amp;gt;" style="text;html=1;strokeColor=none;fillColor=none;align=left;verticalAlign=middle;whiteSpace=wrap;rounded=0;" vertex="1" parent="LSPWSXQBOcd98Ju-pocV-85">
          <mxGeometry y="140" width="200" height="30" as="geometry" />
        </mxCell>
        <mxCell id="LSPWSXQBOcd98Ju-pocV-90" value="+ GetConsole(string model): ConsoleDTO?" style="text;html=1;strokeColor=none;fillColor=none;align=left;verticalAlign=middle;whiteSpace=wrap;rounded=0;" parent="LSPWSXQBOcd98Ju-pocV-85" vertex="1">
          <mxGeometry y="170" width="200" height="50" as="geometry" />
        </mxCell>
        <mxCell id="OVD1bzsGRKaOEKY8W8DL-113" value="+ GetConsoleID(console: string): int?" style="text;html=1;strokeColor=none;fillColor=none;align=left;verticalAlign=middle;whiteSpace=wrap;rounded=0;" vertex="1" parent="LSPWSXQBOcd98Ju-pocV-85">
          <mxGeometry y="220" width="200" height="30" as="geometry" />
        </mxCell>
        <mxCell id="LSPWSXQBOcd98Ju-pocV-91" value="- CreateConsoleDTO(reader: SqlDataReader&lt;br&gt;): ConsoleDTO" style="text;html=1;strokeColor=none;fillColor=none;align=left;verticalAlign=middle;whiteSpace=wrap;rounded=0;" parent="LSPWSXQBOcd98Ju-pocV-85" vertex="1">
          <mxGeometry y="250" width="200" height="60" as="geometry" />
        </mxCell>
        <mxCell id="LSPWSXQBOcd98Ju-pocV-92" value="+ AddConsole(type: string, model: string, manufacturer: string, releaseDate: DateTime, urlConsole: string,&amp;nbsp; controllerType: string, chatPlatform: string): void" style="text;html=1;strokeColor=none;fillColor=none;align=left;verticalAlign=middle;whiteSpace=wrap;rounded=0;" parent="LSPWSXQBOcd98Ju-pocV-85" vertex="1">
          <mxGeometry y="310" width="200" height="90" as="geometry" />
        </mxCell>
        <mxCell id="LSPWSXQBOcd98Ju-pocV-93" value="+ RemoveConsole(string console): void" style="text;html=1;strokeColor=none;fillColor=none;align=left;verticalAlign=middle;whiteSpace=wrap;rounded=0;" parent="LSPWSXQBOcd98Ju-pocV-85" vertex="1">
          <mxGeometry y="400" width="200" height="50" as="geometry" />
        </mxCell>
        <mxCell id="LSPWSXQBOcd98Ju-pocV-95" value="&amp;lt;&amp;lt;struct&amp;gt;&amp;gt;&lt;br&gt;ConsoleDTO" style="swimlane;fontStyle=0;childLayout=stackLayout;horizontal=1;startSize=30;horizontalStack=0;resizeParent=1;resizeParentMax=0;resizeLast=0;collapsible=1;marginBottom=0;whiteSpace=wrap;html=1;" parent="WIyWlLk6GJQsqaUBKTNV-1" vertex="1">
          <mxGeometry x="850" y="60" width="170" height="240" as="geometry" />
        </mxCell>
        <mxCell id="LSPWSXQBOcd98Ju-pocV-96" value="+ ID: int" style="text;html=1;strokeColor=none;fillColor=none;align=left;verticalAlign=middle;whiteSpace=wrap;rounded=0;" parent="LSPWSXQBOcd98Ju-pocV-95" vertex="1">
          <mxGeometry y="30" width="170" height="30" as="geometry" />
        </mxCell>
        <mxCell id="LSPWSXQBOcd98Ju-pocV-97" value="+ Model: string" style="text;html=1;strokeColor=none;fillColor=none;align=left;verticalAlign=middle;whiteSpace=wrap;rounded=0;" parent="LSPWSXQBOcd98Ju-pocV-95" vertex="1">
          <mxGeometry y="60" width="170" height="30" as="geometry" />
        </mxCell>
        <mxCell id="LSPWSXQBOcd98Ju-pocV-98" value="+ Manufacturer: string" style="text;html=1;strokeColor=none;fillColor=none;align=left;verticalAlign=middle;whiteSpace=wrap;rounded=0;" parent="LSPWSXQBOcd98Ju-pocV-95" vertex="1">
          <mxGeometry y="90" width="170" height="30" as="geometry" />
        </mxCell>
        <mxCell id="LSPWSXQBOcd98Ju-pocV-99" value="+ Release_Date: DateTime" style="text;html=1;strokeColor=none;fillColor=none;align=left;verticalAlign=middle;whiteSpace=wrap;rounded=0;" parent="LSPWSXQBOcd98Ju-pocV-95" vertex="1">
          <mxGeometry y="120" width="170" height="30" as="geometry" />
        </mxCell>
        <mxCell id="LSPWSXQBOcd98Ju-pocV-100" value="+ URL_Console: string" style="text;html=1;strokeColor=none;fillColor=none;align=left;verticalAlign=middle;whiteSpace=wrap;rounded=0;" parent="LSPWSXQBOcd98Ju-pocV-95" vertex="1">
          <mxGeometry y="150" width="170" height="30" as="geometry" />
        </mxCell>
        <mxCell id="LSPWSXQBOcd98Ju-pocV-101" value="+ ControllerType: string" style="text;html=1;strokeColor=none;fillColor=none;align=left;verticalAlign=middle;whiteSpace=wrap;rounded=0;" parent="LSPWSXQBOcd98Ju-pocV-95" vertex="1">
          <mxGeometry y="180" width="170" height="30" as="geometry" />
        </mxCell>
        <mxCell id="LSPWSXQBOcd98Ju-pocV-102" value="+ Chat_Platform: string" style="text;html=1;strokeColor=none;fillColor=none;align=left;verticalAlign=middle;whiteSpace=wrap;rounded=0;" parent="LSPWSXQBOcd98Ju-pocV-95" vertex="1">
          <mxGeometry y="210" width="170" height="30" as="geometry" />
        </mxCell>
        <mxCell id="S7ORjf1j-svzi4pX0CFQ-0" value="" style="endArrow=classic;html=1;rounded=0;entryX=0.5;entryY=0;entryDx=0;entryDy=0;exitX=0.5;exitY=1;exitDx=0;exitDy=0;" parent="WIyWlLk6GJQsqaUBKTNV-1" source="LSPWSXQBOcd98Ju-pocV-93" target="LSPWSXQBOcd98Ju-pocV-73" edge="1">
          <mxGeometry width="50" height="50" relative="1" as="geometry">
            <mxPoint x="120" y="-30" as="sourcePoint" />
            <mxPoint x="-30" y="172" as="targetPoint" />
          </mxGeometry>
        </mxCell>
        <mxCell id="fLxHhZpVU6w79f7GpXnS-2" value="" style="endArrow=none;html=1;rounded=0;" parent="WIyWlLk6GJQsqaUBKTNV-1" edge="1">
          <mxGeometry width="50" height="50" relative="1" as="geometry">
            <mxPoint x="-1650" as="sourcePoint" />
            <mxPoint x="3954" as="targetPoint" />
          </mxGeometry>
        </mxCell>
        <mxCell id="fLxHhZpVU6w79f7GpXnS-3" value="&lt;font style=&quot;font-size: 36px;&quot;&gt;Logic Layer&lt;/font&gt;" style="text;html=1;strokeColor=none;fillColor=none;align=center;verticalAlign=middle;whiteSpace=wrap;rounded=0;" parent="WIyWlLk6GJQsqaUBKTNV-1" vertex="1">
          <mxGeometry x="-1550" y="170" width="210" height="62" as="geometry" />
        </mxCell>
        <mxCell id="fLxHhZpVU6w79f7GpXnS-4" value="&lt;font style=&quot;font-size: 36px;&quot;&gt;Database Layer&lt;/font&gt;" style="text;html=1;strokeColor=none;fillColor=none;align=center;verticalAlign=middle;whiteSpace=wrap;rounded=0;" parent="WIyWlLk6GJQsqaUBKTNV-1" vertex="1">
          <mxGeometry x="-1560" y="-254" width="280" height="62" as="geometry" />
        </mxCell>
        <mxCell id="OVD1bzsGRKaOEKY8W8DL-0" value="&amp;lt;&amp;lt;interface&amp;gt;&amp;gt;&lt;br&gt;IReviewService" style="swimlane;fontStyle=0;childLayout=stackLayout;horizontal=1;startSize=30;horizontalStack=0;resizeParent=1;resizeParentMax=0;resizeLast=0;collapsible=1;marginBottom=0;whiteSpace=wrap;html=1;" vertex="1" parent="WIyWlLk6GJQsqaUBKTNV-1">
          <mxGeometry x="1685" y="242" width="170" height="50" as="geometry" />
        </mxCell>
        <mxCell id="OVD1bzsGRKaOEKY8W8DL-1" value="ReviewService" style="swimlane;fontStyle=0;childLayout=stackLayout;horizontal=1;startSize=30;horizontalStack=0;resizeParent=1;resizeParentMax=0;resizeLast=0;collapsible=1;marginBottom=0;whiteSpace=wrap;html=1;" vertex="1" parent="WIyWlLk6GJQsqaUBKTNV-1">
          <mxGeometry x="1330" y="60" width="200" height="400" as="geometry" />
        </mxCell>
        <mxCell id="OVD1bzsGRKaOEKY8W8DL-5" value="" style="endArrow=none;html=1;rounded=0;exitX=0.001;exitY=-0.004;exitDx=0;exitDy=0;exitPerimeter=0;entryX=0.997;entryY=-0.007;entryDx=0;entryDy=0;entryPerimeter=0;" edge="1" parent="OVD1bzsGRKaOEKY8W8DL-1" target="OVD1bzsGRKaOEKY8W8DL-120">
          <mxGeometry width="50" height="50" relative="1" as="geometry">
            <mxPoint x="0.17000000000007276" y="139.8399999999997" as="sourcePoint" />
            <mxPoint x="205" y="140" as="targetPoint" />
          </mxGeometry>
        </mxCell>
        <mxCell id="OVD1bzsGRKaOEKY8W8DL-126" value="- _reviewService: readonly IReviewRepository" style="text;html=1;strokeColor=none;fillColor=none;align=left;verticalAlign=middle;whiteSpace=wrap;rounded=0;" vertex="1" parent="OVD1bzsGRKaOEKY8W8DL-1">
          <mxGeometry y="30" width="200" height="40" as="geometry" />
        </mxCell>
        <mxCell id="OVD1bzsGRKaOEKY8W8DL-127" value="+ ReviewService(_reviewRepository: IReviewRepository)" style="text;html=1;strokeColor=none;fillColor=none;align=left;verticalAlign=middle;whiteSpace=wrap;rounded=0;" vertex="1" parent="OVD1bzsGRKaOEKY8W8DL-1">
          <mxGeometry y="70" width="200" height="70" as="geometry" />
        </mxCell>
        <mxCell id="OVD1bzsGRKaOEKY8W8DL-120" value="&amp;nbsp;+ GetReviews(gameID int?, consoleID, int?): Result&amp;lt;List&amp;lt;Review&amp;gt;&amp;gt;" style="text;strokeColor=none;fillColor=none;align=left;verticalAlign=middle;spacingLeft=4;spacingRight=4;overflow=hidden;points=[[0,0.5],[1,0.5]];portConstraint=eastwest;rotatable=0;whiteSpace=wrap;html=1;" vertex="1" parent="OVD1bzsGRKaOEKY8W8DL-1">
          <mxGeometry y="140" width="200" height="70" as="geometry" />
        </mxCell>
        <mxCell id="OVD1bzsGRKaOEKY8W8DL-123" value="+ GetRating(gameID: int?, consoleID: int?): Result&amp;lt;double?&amp;gt;&amp;nbsp;" style="text;html=1;strokeColor=none;fillColor=none;align=left;verticalAlign=middle;whiteSpace=wrap;rounded=0;" vertex="1" parent="OVD1bzsGRKaOEKY8W8DL-1">
          <mxGeometry y="210" width="200" height="50" as="geometry" />
        </mxCell>
        <mxCell id="OVD1bzsGRKaOEKY8W8DL-122" value="+ GetNumberOfReviews(username: string): Result&amp;lt;int?&amp;gt;" style="text;html=1;strokeColor=none;fillColor=none;align=left;verticalAlign=middle;whiteSpace=wrap;rounded=0;" vertex="1" parent="OVD1bzsGRKaOEKY8W8DL-1">
          <mxGeometry y="260" width="200" height="50" as="geometry" />
        </mxCell>
        <mxCell id="OVD1bzsGRKaOEKY8W8DL-121" value="+ AddReview(Username: string, URL_ProfilePicture: string, Rating: string, ReviewDesc: string, Game_ID: int?, Console_ID: int?): void" style="text;html=1;strokeColor=none;fillColor=none;align=left;verticalAlign=middle;whiteSpace=wrap;rounded=0;" vertex="1" parent="OVD1bzsGRKaOEKY8W8DL-1">
          <mxGeometry y="310" width="200" height="90" as="geometry" />
        </mxCell>
        <mxCell id="OVD1bzsGRKaOEKY8W8DL-10" value="&amp;lt;&amp;lt;interface&amp;gt;&amp;gt;&lt;br&gt;IReviewLibrary" style="swimlane;fontStyle=0;childLayout=stackLayout;horizontal=1;startSize=30;horizontalStack=0;resizeParent=1;resizeParentMax=0;resizeLast=0;collapsible=1;marginBottom=0;whiteSpace=wrap;html=1;" vertex="1" parent="WIyWlLk6GJQsqaUBKTNV-1">
          <mxGeometry x="1685" y="101" width="170" height="50" as="geometry" />
        </mxCell>
        <mxCell id="OVD1bzsGRKaOEKY8W8DL-11" value="ReviewLibrary" style="swimlane;fontStyle=0;childLayout=stackLayout;horizontal=1;startSize=30;horizontalStack=0;resizeParent=1;resizeParentMax=0;resizeLast=0;collapsible=1;marginBottom=0;whiteSpace=wrap;html=1;" vertex="1" parent="WIyWlLk6GJQsqaUBKTNV-1">
          <mxGeometry x="1330" y="-420" width="200" height="360" as="geometry" />
        </mxCell>
        <mxCell id="OVD1bzsGRKaOEKY8W8DL-12" value="- connectionString: readonly string" style="text;html=1;strokeColor=none;fillColor=none;align=left;verticalAlign=middle;whiteSpace=wrap;rounded=0;" vertex="1" parent="OVD1bzsGRKaOEKY8W8DL-11">
          <mxGeometry y="30" width="200" height="30" as="geometry" />
        </mxCell>
        <mxCell id="OVD1bzsGRKaOEKY8W8DL-13" value="" style="endArrow=none;html=1;rounded=0;entryX=0.996;entryY=-0.003;entryDx=0;entryDy=0;entryPerimeter=0;exitX=0.001;exitY=-0.004;exitDx=0;exitDy=0;exitPerimeter=0;" edge="1" parent="OVD1bzsGRKaOEKY8W8DL-11" source="OVD1bzsGRKaOEKY8W8DL-15" target="OVD1bzsGRKaOEKY8W8DL-15">
          <mxGeometry width="50" height="50" relative="1" as="geometry">
            <mxPoint x="-4" y="190" as="sourcePoint" />
            <mxPoint x="46" y="140" as="targetPoint" />
          </mxGeometry>
        </mxCell>
        <mxCell id="OVD1bzsGRKaOEKY8W8DL-14" value="+ ReviewLibrary(connectionString: string)" style="text;html=1;strokeColor=none;fillColor=none;align=left;verticalAlign=middle;whiteSpace=wrap;rounded=0;" vertex="1" parent="OVD1bzsGRKaOEKY8W8DL-11">
          <mxGeometry y="60" width="200" height="40" as="geometry" />
        </mxCell>
        <mxCell id="OVD1bzsGRKaOEKY8W8DL-15" value="&amp;nbsp;+ GetReviews(gameID int?, consoleID, int?): List&amp;lt;ReviewDTO&amp;gt;" style="text;strokeColor=none;fillColor=none;align=left;verticalAlign=middle;spacingLeft=4;spacingRight=4;overflow=hidden;points=[[0,0.5],[1,0.5]];portConstraint=eastwest;rotatable=0;whiteSpace=wrap;html=1;" vertex="1" parent="OVD1bzsGRKaOEKY8W8DL-11">
          <mxGeometry y="100" width="200" height="40" as="geometry" />
        </mxCell>
        <mxCell id="OVD1bzsGRKaOEKY8W8DL-17" value="-CreateReviewDTO(reader: SqlDataReader&lt;br&gt;): ReviewDTO" style="text;html=1;strokeColor=none;fillColor=none;align=left;verticalAlign=middle;whiteSpace=wrap;rounded=0;" vertex="1" parent="OVD1bzsGRKaOEKY8W8DL-11">
          <mxGeometry y="140" width="200" height="50" as="geometry" />
        </mxCell>
        <mxCell id="OVD1bzsGRKaOEKY8W8DL-18" value="+ AddReview(Username: string, URL_ProfilePicture: string, Rating: string, ReviewDesc: string, Game_ID: int?, Console_ID: int?): void" style="text;html=1;strokeColor=none;fillColor=none;align=left;verticalAlign=middle;whiteSpace=wrap;rounded=0;" vertex="1" parent="OVD1bzsGRKaOEKY8W8DL-11">
          <mxGeometry y="190" width="200" height="90" as="geometry" />
        </mxCell>
        <mxCell id="OVD1bzsGRKaOEKY8W8DL-19" value="+ GetNumberOfReviews(username: string): int?" style="text;html=1;strokeColor=none;fillColor=none;align=left;verticalAlign=middle;whiteSpace=wrap;rounded=0;" vertex="1" parent="OVD1bzsGRKaOEKY8W8DL-11">
          <mxGeometry y="280" width="200" height="50" as="geometry" />
        </mxCell>
        <mxCell id="OVD1bzsGRKaOEKY8W8DL-119" value="+ GetRating(gameID: int?, consoleID: int?): double?&amp;nbsp;" style="text;html=1;strokeColor=none;fillColor=none;align=left;verticalAlign=middle;whiteSpace=wrap;rounded=0;" vertex="1" parent="OVD1bzsGRKaOEKY8W8DL-11">
          <mxGeometry y="330" width="200" height="30" as="geometry" />
        </mxCell>
        <mxCell id="OVD1bzsGRKaOEKY8W8DL-20" value="&amp;lt;&amp;lt;struct&amp;gt;&amp;gt;&lt;br&gt;ReviewDTO" style="swimlane;fontStyle=0;childLayout=stackLayout;horizontal=1;startSize=30;horizontalStack=0;resizeParent=1;resizeParentMax=0;resizeLast=0;collapsible=1;marginBottom=0;whiteSpace=wrap;html=1;" vertex="1" parent="WIyWlLk6GJQsqaUBKTNV-1">
          <mxGeometry x="2060" y="60" width="170" height="240" as="geometry" />
        </mxCell>
        <mxCell id="OVD1bzsGRKaOEKY8W8DL-21" value="+ ID: int" style="text;html=1;strokeColor=none;fillColor=none;align=left;verticalAlign=middle;whiteSpace=wrap;rounded=0;" vertex="1" parent="OVD1bzsGRKaOEKY8W8DL-20">
          <mxGeometry y="30" width="170" height="30" as="geometry" />
        </mxCell>
        <mxCell id="OVD1bzsGRKaOEKY8W8DL-22" value="+ Username: string" style="text;html=1;strokeColor=none;fillColor=none;align=left;verticalAlign=middle;whiteSpace=wrap;rounded=0;" vertex="1" parent="OVD1bzsGRKaOEKY8W8DL-20">
          <mxGeometry y="60" width="170" height="30" as="geometry" />
        </mxCell>
        <mxCell id="OVD1bzsGRKaOEKY8W8DL-23" value="+ URL_ProfilePicture: string" style="text;html=1;strokeColor=none;fillColor=none;align=left;verticalAlign=middle;whiteSpace=wrap;rounded=0;" vertex="1" parent="OVD1bzsGRKaOEKY8W8DL-20">
          <mxGeometry y="90" width="170" height="30" as="geometry" />
        </mxCell>
        <mxCell id="OVD1bzsGRKaOEKY8W8DL-24" value="+ Rating: double" style="text;html=1;strokeColor=none;fillColor=none;align=left;verticalAlign=middle;whiteSpace=wrap;rounded=0;" vertex="1" parent="OVD1bzsGRKaOEKY8W8DL-20">
          <mxGeometry y="120" width="170" height="30" as="geometry" />
        </mxCell>
        <mxCell id="OVD1bzsGRKaOEKY8W8DL-25" value="+ ReviewDesc: string" style="text;html=1;strokeColor=none;fillColor=none;align=left;verticalAlign=middle;whiteSpace=wrap;rounded=0;" vertex="1" parent="OVD1bzsGRKaOEKY8W8DL-20">
          <mxGeometry y="150" width="170" height="30" as="geometry" />
        </mxCell>
        <mxCell id="OVD1bzsGRKaOEKY8W8DL-26" value="+ Game_ID: int" style="text;html=1;strokeColor=none;fillColor=none;align=left;verticalAlign=middle;whiteSpace=wrap;rounded=0;" vertex="1" parent="OVD1bzsGRKaOEKY8W8DL-20">
          <mxGeometry y="180" width="170" height="30" as="geometry" />
        </mxCell>
        <mxCell id="OVD1bzsGRKaOEKY8W8DL-27" value="+ Console_ID: int" style="text;html=1;strokeColor=none;fillColor=none;align=left;verticalAlign=middle;whiteSpace=wrap;rounded=0;" vertex="1" parent="OVD1bzsGRKaOEKY8W8DL-20">
          <mxGeometry y="210" width="170" height="30" as="geometry" />
        </mxCell>
        <mxCell id="OVD1bzsGRKaOEKY8W8DL-28" value="" style="endArrow=classic;html=1;rounded=0;entryX=0.5;entryY=0;entryDx=0;entryDy=0;exitX=0.5;exitY=1;exitDx=0;exitDy=0;" edge="1" parent="WIyWlLk6GJQsqaUBKTNV-1" source="OVD1bzsGRKaOEKY8W8DL-119" target="OVD1bzsGRKaOEKY8W8DL-1">
          <mxGeometry width="50" height="50" relative="1" as="geometry">
            <mxPoint x="1330" y="-31" as="sourcePoint" />
            <mxPoint x="1180" y="171" as="targetPoint" />
          </mxGeometry>
        </mxCell>
        <mxCell id="OVD1bzsGRKaOEKY8W8DL-44" value="&amp;lt;&amp;lt;interface&amp;gt;&amp;gt;&lt;br&gt;IAccountService" style="swimlane;fontStyle=0;childLayout=stackLayout;horizontal=1;startSize=30;horizontalStack=0;resizeParent=1;resizeParentMax=0;resizeLast=0;collapsible=1;marginBottom=0;whiteSpace=wrap;html=1;" vertex="1" parent="WIyWlLk6GJQsqaUBKTNV-1">
          <mxGeometry x="2836" y="243" width="170" height="50" as="geometry" />
        </mxCell>
        <mxCell id="OVD1bzsGRKaOEKY8W8DL-54" value="&amp;lt;&amp;lt;interface&amp;gt;&amp;gt;&lt;br&gt;IAccountLibrary" style="swimlane;fontStyle=0;childLayout=stackLayout;horizontal=1;startSize=30;horizontalStack=0;resizeParent=1;resizeParentMax=0;resizeLast=0;collapsible=1;marginBottom=0;whiteSpace=wrap;html=1;" vertex="1" parent="WIyWlLk6GJQsqaUBKTNV-1">
          <mxGeometry x="2836" y="102" width="170" height="50" as="geometry" />
        </mxCell>
        <mxCell id="OVD1bzsGRKaOEKY8W8DL-55" value="AccountLibrary" style="swimlane;fontStyle=0;childLayout=stackLayout;horizontal=1;startSize=30;horizontalStack=0;resizeParent=1;resizeParentMax=0;resizeLast=0;collapsible=1;marginBottom=0;whiteSpace=wrap;html=1;" vertex="1" parent="WIyWlLk6GJQsqaUBKTNV-1">
          <mxGeometry x="2481" y="-470" width="200" height="410" as="geometry" />
        </mxCell>
        <mxCell id="OVD1bzsGRKaOEKY8W8DL-56" value="- connectionString: readonly string" style="text;html=1;strokeColor=none;fillColor=none;align=left;verticalAlign=middle;whiteSpace=wrap;rounded=0;" vertex="1" parent="OVD1bzsGRKaOEKY8W8DL-55">
          <mxGeometry y="30" width="200" height="30" as="geometry" />
        </mxCell>
        <mxCell id="OVD1bzsGRKaOEKY8W8DL-57" value="" style="endArrow=none;html=1;rounded=0;entryX=0.996;entryY=-0.003;entryDx=0;entryDy=0;entryPerimeter=0;exitX=0.001;exitY=-0.004;exitDx=0;exitDy=0;exitPerimeter=0;" edge="1" parent="OVD1bzsGRKaOEKY8W8DL-55">
          <mxGeometry width="50" height="50" relative="1" as="geometry">
            <mxPoint x="0.1999999999998181" y="99.83999999999992" as="sourcePoint" />
            <mxPoint x="199.19999999999982" y="99.88000000000011" as="targetPoint" />
          </mxGeometry>
        </mxCell>
        <mxCell id="OVD1bzsGRKaOEKY8W8DL-58" value="+ AccountLibrary(connectionString: string)" style="text;html=1;strokeColor=none;fillColor=none;align=left;verticalAlign=middle;whiteSpace=wrap;rounded=0;" vertex="1" parent="OVD1bzsGRKaOEKY8W8DL-55">
          <mxGeometry y="60" width="200" height="40" as="geometry" />
        </mxCell>
        <mxCell id="OVD1bzsGRKaOEKY8W8DL-62" value="+ AddAccount(submittedEmail: string, submittedUsername: string, hashedPassword: string, salt: string): void" style="text;html=1;strokeColor=none;fillColor=none;align=left;verticalAlign=middle;whiteSpace=wrap;rounded=0;" vertex="1" parent="OVD1bzsGRKaOEKY8W8DL-55">
          <mxGeometry y="100" width="200" height="70" as="geometry" />
        </mxCell>
        <mxCell id="OVD1bzsGRKaOEKY8W8DL-137" value="+ RemoveAccount(id: int): void" style="text;html=1;strokeColor=none;fillColor=none;align=left;verticalAlign=middle;whiteSpace=wrap;rounded=0;" vertex="1" parent="OVD1bzsGRKaOEKY8W8DL-55">
          <mxGeometry y="170" width="200" height="40" as="geometry" />
        </mxCell>
        <mxCell id="OVD1bzsGRKaOEKY8W8DL-138" value="+ GetAccount(email: string): AccountDTO?&amp;nbsp;" style="text;html=1;strokeColor=none;fillColor=none;align=left;verticalAlign=middle;whiteSpace=wrap;rounded=0;" vertex="1" parent="OVD1bzsGRKaOEKY8W8DL-55">
          <mxGeometry y="210" width="200" height="40" as="geometry" />
        </mxCell>
        <mxCell id="OVD1bzsGRKaOEKY8W8DL-139" value="+ GetUsernameFromEmail(email: string): void" style="text;html=1;strokeColor=none;fillColor=none;align=left;verticalAlign=middle;whiteSpace=wrap;rounded=0;" vertex="1" parent="OVD1bzsGRKaOEKY8W8DL-55">
          <mxGeometry y="250" width="200" height="40" as="geometry" />
        </mxCell>
        <mxCell id="OVD1bzsGRKaOEKY8W8DL-140" value="+ GetProfilePic(email: string): string" style="text;html=1;strokeColor=none;fillColor=none;align=left;verticalAlign=middle;whiteSpace=wrap;rounded=0;" vertex="1" parent="OVD1bzsGRKaOEKY8W8DL-55">
          <mxGeometry y="290" width="200" height="30" as="geometry" />
        </mxCell>
        <mxCell id="OVD1bzsGRKaOEKY8W8DL-141" value="+ GetAccountLogIn(email: string): SqlDataReader" style="text;html=1;strokeColor=none;fillColor=none;align=left;verticalAlign=middle;whiteSpace=wrap;rounded=0;" vertex="1" parent="OVD1bzsGRKaOEKY8W8DL-55">
          <mxGeometry y="320" width="200" height="40" as="geometry" />
        </mxCell>
        <mxCell id="OVD1bzsGRKaOEKY8W8DL-142" value="&lt;font style=&quot;font-size: 10px;&quot;&gt;+ CreateAccountDTO(reader:SqlDataReader&lt;br&gt;): AccountDTO&lt;/font&gt;" style="text;html=1;strokeColor=none;fillColor=none;align=left;verticalAlign=middle;whiteSpace=wrap;rounded=0;" vertex="1" parent="OVD1bzsGRKaOEKY8W8DL-55">
          <mxGeometry y="360" width="200" height="50" as="geometry" />
        </mxCell>
        <mxCell id="OVD1bzsGRKaOEKY8W8DL-64" value="&amp;lt;&amp;lt;struct&amp;gt;&amp;gt;&lt;br&gt;AccountDTO" style="swimlane;fontStyle=0;childLayout=stackLayout;horizontal=1;startSize=30;horizontalStack=0;resizeParent=1;resizeParentMax=0;resizeLast=0;collapsible=1;marginBottom=0;whiteSpace=wrap;html=1;" vertex="1" parent="WIyWlLk6GJQsqaUBKTNV-1">
          <mxGeometry x="3211" y="60" width="170" height="210" as="geometry" />
        </mxCell>
        <mxCell id="OVD1bzsGRKaOEKY8W8DL-65" value="+ ID: int" style="text;html=1;strokeColor=none;fillColor=none;align=left;verticalAlign=middle;whiteSpace=wrap;rounded=0;" vertex="1" parent="OVD1bzsGRKaOEKY8W8DL-64">
          <mxGeometry y="30" width="170" height="30" as="geometry" />
        </mxCell>
        <mxCell id="OVD1bzsGRKaOEKY8W8DL-66" value="+ ProfilePicURL: string" style="text;html=1;strokeColor=none;fillColor=none;align=left;verticalAlign=middle;whiteSpace=wrap;rounded=0;" vertex="1" parent="OVD1bzsGRKaOEKY8W8DL-64">
          <mxGeometry y="60" width="170" height="30" as="geometry" />
        </mxCell>
        <mxCell id="OVD1bzsGRKaOEKY8W8DL-67" value="+ Salt: string" style="text;html=1;strokeColor=none;fillColor=none;align=left;verticalAlign=middle;whiteSpace=wrap;rounded=0;" vertex="1" parent="OVD1bzsGRKaOEKY8W8DL-64">
          <mxGeometry y="90" width="170" height="30" as="geometry" />
        </mxCell>
        <mxCell id="OVD1bzsGRKaOEKY8W8DL-68" value="+ Username: string" style="text;html=1;strokeColor=none;fillColor=none;align=left;verticalAlign=middle;whiteSpace=wrap;rounded=0;" vertex="1" parent="OVD1bzsGRKaOEKY8W8DL-64">
          <mxGeometry y="120" width="170" height="30" as="geometry" />
        </mxCell>
        <mxCell id="OVD1bzsGRKaOEKY8W8DL-69" value="+ Email: string" style="text;html=1;strokeColor=none;fillColor=none;align=left;verticalAlign=middle;whiteSpace=wrap;rounded=0;" vertex="1" parent="OVD1bzsGRKaOEKY8W8DL-64">
          <mxGeometry y="150" width="170" height="30" as="geometry" />
        </mxCell>
        <mxCell id="OVD1bzsGRKaOEKY8W8DL-70" value="+ Password: string" style="text;html=1;strokeColor=none;fillColor=none;align=left;verticalAlign=middle;whiteSpace=wrap;rounded=0;" vertex="1" parent="OVD1bzsGRKaOEKY8W8DL-64">
          <mxGeometry y="180" width="170" height="30" as="geometry" />
        </mxCell>
        <mxCell id="OVD1bzsGRKaOEKY8W8DL-72" value="" style="endArrow=classic;html=1;rounded=0;entryX=0.5;entryY=0.004;entryDx=0;entryDy=0;entryPerimeter=0;exitX=0.5;exitY=1;exitDx=0;exitDy=0;" edge="1" parent="WIyWlLk6GJQsqaUBKTNV-1" source="OVD1bzsGRKaOEKY8W8DL-142" target="OVD1bzsGRKaOEKY8W8DL-128">
          <mxGeometry width="50" height="50" relative="1" as="geometry">
            <mxPoint x="2581" y="-90" as="sourcePoint" />
            <mxPoint x="2581" y="52" as="targetPoint" />
          </mxGeometry>
        </mxCell>
        <mxCell id="OVD1bzsGRKaOEKY8W8DL-128" value="AccountService" style="swimlane;fontStyle=0;childLayout=stackLayout;horizontal=1;startSize=30;horizontalStack=0;resizeParent=1;resizeParentMax=0;resizeLast=0;collapsible=1;marginBottom=0;whiteSpace=wrap;html=1;" vertex="1" parent="WIyWlLk6GJQsqaUBKTNV-1">
          <mxGeometry x="2481" y="60" width="200" height="480" as="geometry" />
        </mxCell>
        <mxCell id="OVD1bzsGRKaOEKY8W8DL-129" value="" style="endArrow=none;html=1;rounded=0;exitX=0.001;exitY=-0.004;exitDx=0;exitDy=0;exitPerimeter=0;entryX=0.997;entryY=-0.007;entryDx=0;entryDy=0;entryPerimeter=0;" edge="1" parent="OVD1bzsGRKaOEKY8W8DL-128">
          <mxGeometry width="50" height="50" relative="1" as="geometry">
            <mxPoint x="0.17000000000007276" y="139.8399999999997" as="sourcePoint" />
            <mxPoint x="199.40000000000055" y="139.51" as="targetPoint" />
          </mxGeometry>
        </mxCell>
        <mxCell id="OVD1bzsGRKaOEKY8W8DL-130" value="- _accountService: readonly IAccountRepository" style="text;html=1;strokeColor=none;fillColor=none;align=left;verticalAlign=middle;whiteSpace=wrap;rounded=0;" vertex="1" parent="OVD1bzsGRKaOEKY8W8DL-128">
          <mxGeometry y="30" width="200" height="40" as="geometry" />
        </mxCell>
        <mxCell id="OVD1bzsGRKaOEKY8W8DL-131" value="+ AccountService(_accountRepository: IAccountRepository)" style="text;html=1;strokeColor=none;fillColor=none;align=left;verticalAlign=middle;whiteSpace=wrap;rounded=0;" vertex="1" parent="OVD1bzsGRKaOEKY8W8DL-128">
          <mxGeometry y="70" width="200" height="70" as="geometry" />
        </mxCell>
        <mxCell id="OVD1bzsGRKaOEKY8W8DL-143" value="+ AddAccount(submittedEmail: string, submittedUsername: string, hashedPassword: string, salt: string): void" style="text;html=1;strokeColor=none;fillColor=none;align=left;verticalAlign=middle;whiteSpace=wrap;rounded=0;" vertex="1" parent="OVD1bzsGRKaOEKY8W8DL-128">
          <mxGeometry y="140" width="200" height="70" as="geometry" />
        </mxCell>
        <mxCell id="OVD1bzsGRKaOEKY8W8DL-148" value="+ GetAccountLogIn(email: string): SqlDataReader" style="text;html=1;strokeColor=none;fillColor=none;align=left;verticalAlign=middle;whiteSpace=wrap;rounded=0;" vertex="1" parent="OVD1bzsGRKaOEKY8W8DL-128">
          <mxGeometry y="210" width="200" height="40" as="geometry" />
        </mxCell>
        <mxCell id="OVD1bzsGRKaOEKY8W8DL-147" value="+ GetProfilePic(email: string): string" style="text;html=1;strokeColor=none;fillColor=none;align=left;verticalAlign=middle;whiteSpace=wrap;rounded=0;" vertex="1" parent="OVD1bzsGRKaOEKY8W8DL-128">
          <mxGeometry y="250" width="200" height="30" as="geometry" />
        </mxCell>
        <mxCell id="OVD1bzsGRKaOEKY8W8DL-146" value="+ GetUsernameFromEmail(email: string): void" style="text;html=1;strokeColor=none;fillColor=none;align=left;verticalAlign=middle;whiteSpace=wrap;rounded=0;" vertex="1" parent="OVD1bzsGRKaOEKY8W8DL-128">
          <mxGeometry y="280" width="200" height="40" as="geometry" />
        </mxCell>
        <mxCell id="OVD1bzsGRKaOEKY8W8DL-145" value="+ GetAccount(email: string): AccountDTO?&amp;nbsp;" style="text;html=1;strokeColor=none;fillColor=none;align=left;verticalAlign=middle;whiteSpace=wrap;rounded=0;" vertex="1" parent="OVD1bzsGRKaOEKY8W8DL-128">
          <mxGeometry y="320" width="200" height="40" as="geometry" />
        </mxCell>
        <mxCell id="OVD1bzsGRKaOEKY8W8DL-144" value="+ RemoveAccount(id: int): void" style="text;html=1;strokeColor=none;fillColor=none;align=left;verticalAlign=middle;whiteSpace=wrap;rounded=0;" vertex="1" parent="OVD1bzsGRKaOEKY8W8DL-128">
          <mxGeometry y="360" width="200" height="40" as="geometry" />
        </mxCell>
        <mxCell id="OVD1bzsGRKaOEKY8W8DL-149" value="+ GenerateSalt(): Result&amp;lt;string&amp;gt;" style="text;html=1;strokeColor=none;fillColor=none;align=left;verticalAlign=middle;whiteSpace=wrap;rounded=0;" vertex="1" parent="OVD1bzsGRKaOEKY8W8DL-128">
          <mxGeometry y="400" width="200" height="30" as="geometry" />
        </mxCell>
        <mxCell id="OVD1bzsGRKaOEKY8W8DL-150" value="+ HashPassowrd(password: string): Result&amp;lt;string&amp;gt;" style="text;html=1;strokeColor=none;fillColor=none;align=left;verticalAlign=middle;whiteSpace=wrap;rounded=0;" vertex="1" parent="OVD1bzsGRKaOEKY8W8DL-128">
          <mxGeometry y="430" width="200" height="50" as="geometry" />
        </mxCell>
        <mxCell id="OVD1bzsGRKaOEKY8W8DL-155" value="" style="edgeStyle=orthogonalEdgeStyle;fontSize=12;html=1;endArrow=ERmandOne;startArrow=ERmandOne;rounded=0;exitX=0.5;exitY=0;exitDx=0;exitDy=0;entryX=0.5;entryY=0;entryDx=0;entryDy=0;" edge="1" parent="WIyWlLk6GJQsqaUBKTNV-1" source="LSPWSXQBOcd98Ju-pocV-26" target="LSPWSXQBOcd98Ju-pocV-12">
          <mxGeometry width="100" height="100" relative="1" as="geometry">
            <mxPoint x="-620" y="-320" as="sourcePoint" />
            <mxPoint x="-520" y="-420" as="targetPoint" />
            <Array as="points">
              <mxPoint x="-965" y="-740" />
              <mxPoint x="-251" y="-740" />
            </Array>
          </mxGeometry>
        </mxCell>
        <mxCell id="OVD1bzsGRKaOEKY8W8DL-156" value="" style="endArrow=block;startArrow=none;endFill=0;startFill=0;endSize=8;html=1;verticalAlign=bottom;dashed=1;labelBackgroundColor=none;rounded=0;entryX=1;entryY=0.585;entryDx=0;entryDy=0;entryPerimeter=0;" edge="1" parent="WIyWlLk6GJQsqaUBKTNV-1" target="LSPWSXQBOcd98Ju-pocV-10">
          <mxGeometry width="160" relative="1" as="geometry">
            <mxPoint x="-350" y="274" as="sourcePoint" />
            <mxPoint x="-390" y="210" as="targetPoint" />
          </mxGeometry>
        </mxCell>
        <mxCell id="OVD1bzsGRKaOEKY8W8DL-157" value="" style="endArrow=block;startArrow=none;endFill=0;startFill=0;endSize=8;html=1;verticalAlign=bottom;dashed=1;labelBackgroundColor=none;rounded=0;exitX=0;exitY=0;exitDx=0;exitDy=0;" edge="1" parent="WIyWlLk6GJQsqaUBKTNV-1" source="LSPWSXQBOcd98Ju-pocV-17">
          <mxGeometry width="160" relative="1" as="geometry">
            <mxPoint x="-680" y="-190" as="sourcePoint" />
            <mxPoint x="-590" y="100" as="targetPoint" />
            <Array as="points">
              <mxPoint x="-590" y="-380" />
            </Array>
          </mxGeometry>
        </mxCell>
        <mxCell id="OVD1bzsGRKaOEKY8W8DL-158" value="" style="edgeStyle=orthogonalEdgeStyle;fontSize=12;html=1;endArrow=ERmandOne;startArrow=ERmandOne;rounded=0;entryX=0.5;entryY=0;entryDx=0;entryDy=0;exitX=0.5;exitY=0;exitDx=0;exitDy=0;" edge="1" parent="WIyWlLk6GJQsqaUBKTNV-1" source="LSPWSXQBOcd98Ju-pocV-85" target="LSPWSXQBOcd98Ju-pocV-95">
          <mxGeometry width="100" height="100" relative="1" as="geometry">
            <mxPoint x="250" y="-260" as="sourcePoint" />
            <mxPoint x="350" y="-360" as="targetPoint" />
            <Array as="points">
              <mxPoint x="220" y="-740" />
              <mxPoint x="935" y="-740" />
            </Array>
          </mxGeometry>
        </mxCell>
        <mxCell id="OVD1bzsGRKaOEKY8W8DL-160" value="" style="endArrow=block;startArrow=none;endFill=0;startFill=0;endSize=8;html=1;verticalAlign=bottom;dashed=1;labelBackgroundColor=none;rounded=0;exitX=1;exitY=0;exitDx=0;exitDy=0;entryX=0;entryY=0.5;entryDx=0;entryDy=0;" edge="1" parent="WIyWlLk6GJQsqaUBKTNV-1" source="OVD1bzsGRKaOEKY8W8DL-115" target="LSPWSXQBOcd98Ju-pocV-71">
          <mxGeometry width="160" relative="1" as="geometry">
            <mxPoint x="180" y="120" as="sourcePoint" />
            <mxPoint x="380" y="210" as="targetPoint" />
          </mxGeometry>
        </mxCell>
        <mxCell id="OVD1bzsGRKaOEKY8W8DL-161" value="" style="edgeStyle=orthogonalEdgeStyle;fontSize=12;html=1;endArrow=ERmandOne;startArrow=ERmandOne;rounded=0;exitX=0.5;exitY=0;exitDx=0;exitDy=0;entryX=0.5;entryY=0;entryDx=0;entryDy=0;" edge="1" parent="WIyWlLk6GJQsqaUBKTNV-1" source="OVD1bzsGRKaOEKY8W8DL-11" target="OVD1bzsGRKaOEKY8W8DL-20">
          <mxGeometry width="100" height="100" relative="1" as="geometry">
            <mxPoint x="1710" y="-150" as="sourcePoint" />
            <mxPoint x="1810" y="-250" as="targetPoint" />
            <Array as="points">
              <mxPoint x="1430" y="-740" />
              <mxPoint x="2145" y="-740" />
            </Array>
          </mxGeometry>
        </mxCell>
        <mxCell id="OVD1bzsGRKaOEKY8W8DL-162" value="" style="endArrow=block;startArrow=none;endFill=0;startFill=0;endSize=8;html=1;verticalAlign=bottom;dashed=1;labelBackgroundColor=none;rounded=0;exitX=1;exitY=0;exitDx=0;exitDy=0;entryX=0.5;entryY=0;entryDx=0;entryDy=0;" edge="1" parent="WIyWlLk6GJQsqaUBKTNV-1" source="OVD1bzsGRKaOEKY8W8DL-18" target="OVD1bzsGRKaOEKY8W8DL-10">
          <mxGeometry width="160" relative="1" as="geometry">
            <mxPoint x="1680" y="-50" as="sourcePoint" />
            <mxPoint x="1680" y="-340" as="targetPoint" />
            <Array as="points">
              <mxPoint x="1770" y="-230" />
            </Array>
          </mxGeometry>
        </mxCell>
        <mxCell id="OVD1bzsGRKaOEKY8W8DL-163" value="" style="endArrow=block;startArrow=none;endFill=0;startFill=0;endSize=8;html=1;verticalAlign=bottom;dashed=1;labelBackgroundColor=none;rounded=0;exitX=1;exitY=0.75;exitDx=0;exitDy=0;entryX=0.5;entryY=0;entryDx=0;entryDy=0;" edge="1" parent="WIyWlLk6GJQsqaUBKTNV-1" source="OVD1bzsGRKaOEKY8W8DL-113" target="LSPWSXQBOcd98Ju-pocV-83">
          <mxGeometry width="160" relative="1" as="geometry">
            <mxPoint x="650" y="-220" as="sourcePoint" />
            <mxPoint x="810" y="-220" as="targetPoint" />
            <Array as="points">
              <mxPoint x="560" y="-267" />
            </Array>
          </mxGeometry>
        </mxCell>
        <mxCell id="OVD1bzsGRKaOEKY8W8DL-164" value="" style="endArrow=block;startArrow=none;endFill=0;startFill=0;endSize=8;html=1;verticalAlign=bottom;dashed=1;labelBackgroundColor=none;rounded=0;exitX=1;exitY=0;exitDx=0;exitDy=0;entryX=-0.001;entryY=0.556;entryDx=0;entryDy=0;entryPerimeter=0;" edge="1" parent="WIyWlLk6GJQsqaUBKTNV-1" source="OVD1bzsGRKaOEKY8W8DL-123" target="OVD1bzsGRKaOEKY8W8DL-0">
          <mxGeometry width="160" relative="1" as="geometry">
            <mxPoint x="830" y="-70" as="sourcePoint" />
            <mxPoint x="990" y="-70" as="targetPoint" />
          </mxGeometry>
        </mxCell>
        <mxCell id="OVD1bzsGRKaOEKY8W8DL-166" value="" style="edgeStyle=orthogonalEdgeStyle;fontSize=12;html=1;endArrow=ERmandOne;startArrow=ERmandOne;rounded=0;entryX=0.5;entryY=0;entryDx=0;entryDy=0;exitX=0.5;exitY=0;exitDx=0;exitDy=0;" edge="1" parent="WIyWlLk6GJQsqaUBKTNV-1" source="OVD1bzsGRKaOEKY8W8DL-55" target="OVD1bzsGRKaOEKY8W8DL-64">
          <mxGeometry width="100" height="100" relative="1" as="geometry">
            <mxPoint x="3020" y="-560" as="sourcePoint" />
            <mxPoint x="3120" y="-660" as="targetPoint" />
            <Array as="points">
              <mxPoint x="2581" y="-740" />
              <mxPoint x="3296" y="-740" />
            </Array>
          </mxGeometry>
        </mxCell>
        <mxCell id="OVD1bzsGRKaOEKY8W8DL-167" value="" style="endArrow=block;startArrow=none;endFill=0;startFill=0;endSize=8;html=1;verticalAlign=bottom;dashed=1;labelBackgroundColor=none;rounded=0;exitX=1;exitY=0;exitDx=0;exitDy=0;entryX=0.5;entryY=0;entryDx=0;entryDy=0;" edge="1" parent="WIyWlLk6GJQsqaUBKTNV-1" source="OVD1bzsGRKaOEKY8W8DL-138" target="OVD1bzsGRKaOEKY8W8DL-54">
          <mxGeometry width="160" relative="1" as="geometry">
            <mxPoint x="2830" y="190" as="sourcePoint" />
            <mxPoint x="2990" y="190" as="targetPoint" />
            <Array as="points">
              <mxPoint x="2920" y="-260" />
            </Array>
          </mxGeometry>
        </mxCell>
        <mxCell id="OVD1bzsGRKaOEKY8W8DL-168" value="" style="endArrow=block;startArrow=none;endFill=0;startFill=0;endSize=8;html=1;verticalAlign=bottom;dashed=1;labelBackgroundColor=none;rounded=0;exitX=1;exitY=0;exitDx=0;exitDy=0;entryX=-0.003;entryY=0.548;entryDx=0;entryDy=0;entryPerimeter=0;" edge="1" parent="WIyWlLk6GJQsqaUBKTNV-1" source="OVD1bzsGRKaOEKY8W8DL-148" target="OVD1bzsGRKaOEKY8W8DL-44">
          <mxGeometry width="160" relative="1" as="geometry">
            <mxPoint x="2450" y="-30" as="sourcePoint" />
            <mxPoint x="2610" y="-30" as="targetPoint" />
          </mxGeometry>
        </mxCell>
        <mxCell id="OVD1bzsGRKaOEKY8W8DL-169" value="&amp;lt;&amp;lt;interface&amp;gt;&amp;gt;&lt;br&gt;IFilterStrategy" style="swimlane;fontStyle=0;childLayout=stackLayout;horizontal=1;startSize=30;horizontalStack=0;resizeParent=1;resizeParentMax=0;resizeLast=0;collapsible=1;marginBottom=0;whiteSpace=wrap;html=1;" vertex="1" parent="WIyWlLk6GJQsqaUBKTNV-1">
          <mxGeometry x="-666" y="1335" width="200" height="130" as="geometry" />
        </mxCell>
        <mxCell id="OVD1bzsGRKaOEKY8W8DL-170" value="+ ShouldApply (keyword: string, mainFilter: string, genre: string): bool" style="text;html=1;strokeColor=none;fillColor=none;align=left;verticalAlign=middle;whiteSpace=wrap;rounded=0;" vertex="1" parent="OVD1bzsGRKaOEKY8W8DL-169">
          <mxGeometry y="30" width="200" height="50" as="geometry" />
        </mxCell>
        <mxCell id="OVD1bzsGRKaOEKY8W8DL-171" value="+ ApplyFilter(keyword: string, mainFilter: string, genre: string, games: List&amp;lt;Game&amp;gt;):&amp;nbsp;List&amp;lt;Game&amp;gt;" style="text;html=1;strokeColor=none;fillColor=none;align=left;verticalAlign=middle;whiteSpace=wrap;rounded=0;" vertex="1" parent="OVD1bzsGRKaOEKY8W8DL-169">
          <mxGeometry y="80" width="200" height="50" as="geometry" />
        </mxCell>
        <mxCell id="OVD1bzsGRKaOEKY8W8DL-172" value="FilterBy_All_Strategy" style="swimlane;fontStyle=0;childLayout=stackLayout;horizontal=1;startSize=30;horizontalStack=0;resizeParent=1;resizeParentMax=0;resizeLast=0;collapsible=1;marginBottom=0;whiteSpace=wrap;html=1;" vertex="1" parent="WIyWlLk6GJQsqaUBKTNV-1">
          <mxGeometry x="-686" y="1135" width="240" height="130" as="geometry" />
        </mxCell>
        <mxCell id="OVD1bzsGRKaOEKY8W8DL-173" value="+ ShouldApply (keyword: string, mainFilter: string, genre: string): bool" style="text;html=1;strokeColor=none;fillColor=none;align=left;verticalAlign=middle;whiteSpace=wrap;rounded=0;" vertex="1" parent="OVD1bzsGRKaOEKY8W8DL-172">
          <mxGeometry y="30" width="240" height="50" as="geometry" />
        </mxCell>
        <mxCell id="OVD1bzsGRKaOEKY8W8DL-174" value="+ ApplyFilter(keyword: string, mainFilter: string, genre: string, games: List&amp;lt;Game&amp;gt;):&amp;nbsp;List&amp;lt;Game&amp;gt;" style="text;html=1;strokeColor=none;fillColor=none;align=left;verticalAlign=middle;whiteSpace=wrap;rounded=0;" vertex="1" parent="OVD1bzsGRKaOEKY8W8DL-172">
          <mxGeometry y="80" width="240" height="50" as="geometry" />
        </mxCell>
        <mxCell id="OVD1bzsGRKaOEKY8W8DL-175" value="FilterBy_Genre_Strategy" style="swimlane;fontStyle=0;childLayout=stackLayout;horizontal=1;startSize=30;horizontalStack=0;resizeParent=1;resizeParentMax=0;resizeLast=0;collapsible=1;marginBottom=0;whiteSpace=wrap;html=1;" vertex="1" parent="WIyWlLk6GJQsqaUBKTNV-1">
          <mxGeometry x="-970" y="1135" width="240" height="130" as="geometry" />
        </mxCell>
        <mxCell id="OVD1bzsGRKaOEKY8W8DL-176" value="+ ShouldApply (keyword: string, mainFilter: string, genre: string): bool" style="text;html=1;strokeColor=none;fillColor=none;align=left;verticalAlign=middle;whiteSpace=wrap;rounded=0;" vertex="1" parent="OVD1bzsGRKaOEKY8W8DL-175">
          <mxGeometry y="30" width="240" height="50" as="geometry" />
        </mxCell>
        <mxCell id="OVD1bzsGRKaOEKY8W8DL-177" value="+ ApplyFilter(keyword: string, mainFilter: string, genre: string, games: List&amp;lt;Game&amp;gt;):&amp;nbsp;List&amp;lt;Game&amp;gt;" style="text;html=1;strokeColor=none;fillColor=none;align=left;verticalAlign=middle;whiteSpace=wrap;rounded=0;" vertex="1" parent="OVD1bzsGRKaOEKY8W8DL-175">
          <mxGeometry y="80" width="240" height="50" as="geometry" />
        </mxCell>
        <mxCell id="OVD1bzsGRKaOEKY8W8DL-178" value="FilterBy_Keyword_Strategy" style="swimlane;fontStyle=0;childLayout=stackLayout;horizontal=1;startSize=30;horizontalStack=0;resizeParent=1;resizeParentMax=0;resizeLast=0;collapsible=1;marginBottom=0;whiteSpace=wrap;html=1;" vertex="1" parent="WIyWlLk6GJQsqaUBKTNV-1">
          <mxGeometry x="-970" y="1335" width="240" height="130" as="geometry" />
        </mxCell>
        <mxCell id="OVD1bzsGRKaOEKY8W8DL-179" value="+ ShouldApply (keyword: string, mainFilter: string, genre: string): bool" style="text;html=1;strokeColor=none;fillColor=none;align=left;verticalAlign=middle;whiteSpace=wrap;rounded=0;" vertex="1" parent="OVD1bzsGRKaOEKY8W8DL-178">
          <mxGeometry y="30" width="240" height="50" as="geometry" />
        </mxCell>
        <mxCell id="OVD1bzsGRKaOEKY8W8DL-180" value="+ ApplyFilter(keyword: string, mainFilter: string, genre: string, games: List&amp;lt;Game&amp;gt;):&amp;nbsp;List&amp;lt;Game&amp;gt;" style="text;html=1;strokeColor=none;fillColor=none;align=left;verticalAlign=middle;whiteSpace=wrap;rounded=0;" vertex="1" parent="OVD1bzsGRKaOEKY8W8DL-178">
          <mxGeometry y="80" width="240" height="50" as="geometry" />
        </mxCell>
        <mxCell id="OVD1bzsGRKaOEKY8W8DL-181" value="FilterBy_KeywordAndGenre_Strategy" style="swimlane;fontStyle=0;childLayout=stackLayout;horizontal=1;startSize=30;horizontalStack=0;resizeParent=1;resizeParentMax=0;resizeLast=0;collapsible=1;marginBottom=0;whiteSpace=wrap;html=1;" vertex="1" parent="WIyWlLk6GJQsqaUBKTNV-1">
          <mxGeometry x="-860" y="1530" width="240" height="130" as="geometry" />
        </mxCell>
        <mxCell id="OVD1bzsGRKaOEKY8W8DL-182" value="+ ShouldApply (keyword: string, mainFilter: string, genre: string): bool" style="text;html=1;strokeColor=none;fillColor=none;align=left;verticalAlign=middle;whiteSpace=wrap;rounded=0;" vertex="1" parent="OVD1bzsGRKaOEKY8W8DL-181">
          <mxGeometry y="30" width="240" height="50" as="geometry" />
        </mxCell>
        <mxCell id="OVD1bzsGRKaOEKY8W8DL-183" value="+ ApplyFilter(keyword: string, mainFilter: string, genre: string, games: List&amp;lt;Game&amp;gt;):&amp;nbsp;List&amp;lt;Game&amp;gt;" style="text;html=1;strokeColor=none;fillColor=none;align=left;verticalAlign=middle;whiteSpace=wrap;rounded=0;" vertex="1" parent="OVD1bzsGRKaOEKY8W8DL-181">
          <mxGeometry y="80" width="240" height="50" as="geometry" />
        </mxCell>
        <mxCell id="OVD1bzsGRKaOEKY8W8DL-184" value="FilterBy_KeywordAndMainFilter_Strategy" style="swimlane;fontStyle=0;childLayout=stackLayout;horizontal=1;startSize=30;horizontalStack=0;resizeParent=1;resizeParentMax=0;resizeLast=0;collapsible=1;marginBottom=0;whiteSpace=wrap;html=1;" vertex="1" parent="WIyWlLk6GJQsqaUBKTNV-1">
          <mxGeometry x="-520" y="1530" width="240" height="130" as="geometry" />
        </mxCell>
        <mxCell id="OVD1bzsGRKaOEKY8W8DL-185" value="+ ShouldApply (keyword: string, mainFilter: string, genre: string): bool" style="text;html=1;strokeColor=none;fillColor=none;align=left;verticalAlign=middle;whiteSpace=wrap;rounded=0;" vertex="1" parent="OVD1bzsGRKaOEKY8W8DL-184">
          <mxGeometry y="30" width="240" height="50" as="geometry" />
        </mxCell>
        <mxCell id="OVD1bzsGRKaOEKY8W8DL-186" value="+ ApplyFilter(keyword: string, mainFilter: string, genre: string, games: List&amp;lt;Game&amp;gt;):&amp;nbsp;List&amp;lt;Game&amp;gt;" style="text;html=1;strokeColor=none;fillColor=none;align=left;verticalAlign=middle;whiteSpace=wrap;rounded=0;" vertex="1" parent="OVD1bzsGRKaOEKY8W8DL-184">
          <mxGeometry y="80" width="240" height="50" as="geometry" />
        </mxCell>
        <mxCell id="OVD1bzsGRKaOEKY8W8DL-187" value="FilterBy_MainFilter_Strategy" style="swimlane;fontStyle=0;childLayout=stackLayout;horizontal=1;startSize=30;horizontalStack=0;resizeParent=1;resizeParentMax=0;resizeLast=0;collapsible=1;marginBottom=0;whiteSpace=wrap;html=1;" vertex="1" parent="WIyWlLk6GJQsqaUBKTNV-1">
          <mxGeometry x="-406" y="1335" width="236" height="130" as="geometry" />
        </mxCell>
        <mxCell id="OVD1bzsGRKaOEKY8W8DL-188" value="+ ShouldApply (keyword: string, mainFilter: string, genre: string): bool" style="text;html=1;strokeColor=none;fillColor=none;align=left;verticalAlign=middle;whiteSpace=wrap;rounded=0;" vertex="1" parent="OVD1bzsGRKaOEKY8W8DL-187">
          <mxGeometry y="30" width="236" height="50" as="geometry" />
        </mxCell>
        <mxCell id="OVD1bzsGRKaOEKY8W8DL-189" value="+ ApplyFilter(keyword: string, mainFilter: string, genre: string, games: List&amp;lt;Game&amp;gt;):&amp;nbsp;List&amp;lt;Game&amp;gt;" style="text;html=1;strokeColor=none;fillColor=none;align=left;verticalAlign=middle;whiteSpace=wrap;rounded=0;" vertex="1" parent="OVD1bzsGRKaOEKY8W8DL-187">
          <mxGeometry y="80" width="236" height="50" as="geometry" />
        </mxCell>
        <mxCell id="OVD1bzsGRKaOEKY8W8DL-190" value="FilterBy_MainFilterAndGenre_Strategy" style="swimlane;fontStyle=0;childLayout=stackLayout;horizontal=1;startSize=30;horizontalStack=0;resizeParent=1;resizeParentMax=0;resizeLast=0;collapsible=1;marginBottom=0;whiteSpace=wrap;html=1;" vertex="1" parent="WIyWlLk6GJQsqaUBKTNV-1">
          <mxGeometry x="-1290" y="1135" width="240" height="130" as="geometry" />
        </mxCell>
        <mxCell id="OVD1bzsGRKaOEKY8W8DL-191" value="+ ShouldApply (keyword: string, mainFilter: string, genre: string): bool" style="text;html=1;strokeColor=none;fillColor=none;align=left;verticalAlign=middle;whiteSpace=wrap;rounded=0;" vertex="1" parent="OVD1bzsGRKaOEKY8W8DL-190">
          <mxGeometry y="30" width="240" height="50" as="geometry" />
        </mxCell>
        <mxCell id="OVD1bzsGRKaOEKY8W8DL-192" value="+ ApplyFilter(keyword: string, mainFilter: string, genre: string, games: List&amp;lt;Game&amp;gt;):&amp;nbsp;List&amp;lt;Game&amp;gt;" style="text;html=1;strokeColor=none;fillColor=none;align=left;verticalAlign=middle;whiteSpace=wrap;rounded=0;" vertex="1" parent="OVD1bzsGRKaOEKY8W8DL-190">
          <mxGeometry y="80" width="240" height="50" as="geometry" />
        </mxCell>
        <mxCell id="OVD1bzsGRKaOEKY8W8DL-193" value="" style="endArrow=block;startArrow=none;endFill=0;startFill=0;endSize=8;html=1;verticalAlign=bottom;dashed=1;labelBackgroundColor=none;rounded=0;exitX=0.5;exitY=0;exitDx=0;exitDy=0;entryX=0.5;entryY=1;entryDx=0;entryDy=0;" edge="1" parent="WIyWlLk6GJQsqaUBKTNV-1" source="OVD1bzsGRKaOEKY8W8DL-181" target="OVD1bzsGRKaOEKY8W8DL-171">
          <mxGeometry width="160" relative="1" as="geometry">
            <mxPoint x="-400" y="1405" as="sourcePoint" />
            <mxPoint x="-240" y="1405" as="targetPoint" />
            <Array as="points">
              <mxPoint x="-740" y="1505" />
              <mxPoint x="-566" y="1505" />
            </Array>
          </mxGeometry>
        </mxCell>
        <mxCell id="OVD1bzsGRKaOEKY8W8DL-194" value="" style="endArrow=block;startArrow=none;endFill=0;startFill=0;endSize=8;html=1;verticalAlign=bottom;dashed=1;labelBackgroundColor=none;rounded=0;exitX=0.5;exitY=0;exitDx=0;exitDy=0;entryX=0.5;entryY=1;entryDx=0;entryDy=0;" edge="1" parent="WIyWlLk6GJQsqaUBKTNV-1" source="OVD1bzsGRKaOEKY8W8DL-184" target="OVD1bzsGRKaOEKY8W8DL-171">
          <mxGeometry width="160" relative="1" as="geometry">
            <mxPoint x="-730" y="1540" as="sourcePoint" />
            <mxPoint x="-556" y="1475" as="targetPoint" />
            <Array as="points">
              <mxPoint x="-400" y="1505" />
              <mxPoint x="-566" y="1505" />
            </Array>
          </mxGeometry>
        </mxCell>
        <mxCell id="OVD1bzsGRKaOEKY8W8DL-195" value="" style="endArrow=block;startArrow=none;endFill=0;startFill=0;endSize=8;html=1;verticalAlign=bottom;dashed=1;labelBackgroundColor=none;rounded=0;exitX=1;exitY=1;exitDx=0;exitDy=0;entryX=0;entryY=0;entryDx=0;entryDy=0;" edge="1" parent="WIyWlLk6GJQsqaUBKTNV-1" source="OVD1bzsGRKaOEKY8W8DL-179" target="OVD1bzsGRKaOEKY8W8DL-171">
          <mxGeometry width="160" relative="1" as="geometry">
            <mxPoint x="-400" y="1405" as="sourcePoint" />
            <mxPoint x="-240" y="1405" as="targetPoint" />
          </mxGeometry>
        </mxCell>
        <mxCell id="OVD1bzsGRKaOEKY8W8DL-196" value="" style="endArrow=block;startArrow=none;endFill=0;startFill=0;endSize=8;html=1;verticalAlign=bottom;dashed=1;labelBackgroundColor=none;rounded=0;entryX=1;entryY=0;entryDx=0;entryDy=0;exitX=0;exitY=1;exitDx=0;exitDy=0;" edge="1" parent="WIyWlLk6GJQsqaUBKTNV-1" source="OVD1bzsGRKaOEKY8W8DL-188" target="OVD1bzsGRKaOEKY8W8DL-171">
          <mxGeometry width="160" relative="1" as="geometry">
            <mxPoint x="-400" y="1405" as="sourcePoint" />
            <mxPoint x="-240" y="1405" as="targetPoint" />
          </mxGeometry>
        </mxCell>
        <mxCell id="OVD1bzsGRKaOEKY8W8DL-197" value="" style="endArrow=block;startArrow=none;endFill=0;startFill=0;endSize=8;html=1;verticalAlign=bottom;dashed=1;labelBackgroundColor=none;rounded=0;entryX=0.5;entryY=0;entryDx=0;entryDy=0;exitX=0.5;exitY=1;exitDx=0;exitDy=0;" edge="1" parent="WIyWlLk6GJQsqaUBKTNV-1" source="OVD1bzsGRKaOEKY8W8DL-174" target="OVD1bzsGRKaOEKY8W8DL-169">
          <mxGeometry width="160" relative="1" as="geometry">
            <mxPoint x="-400" y="1405" as="sourcePoint" />
            <mxPoint x="-240" y="1405" as="targetPoint" />
          </mxGeometry>
        </mxCell>
        <mxCell id="OVD1bzsGRKaOEKY8W8DL-198" value="" style="endArrow=block;startArrow=none;endFill=0;startFill=0;endSize=8;html=1;verticalAlign=bottom;dashed=1;labelBackgroundColor=none;rounded=0;exitX=0.5;exitY=1;exitDx=0;exitDy=0;entryX=0.5;entryY=0;entryDx=0;entryDy=0;" edge="1" parent="WIyWlLk6GJQsqaUBKTNV-1" source="OVD1bzsGRKaOEKY8W8DL-177" target="OVD1bzsGRKaOEKY8W8DL-169">
          <mxGeometry width="160" relative="1" as="geometry">
            <mxPoint x="-400" y="1405" as="sourcePoint" />
            <mxPoint x="-240" y="1405" as="targetPoint" />
            <Array as="points">
              <mxPoint x="-850" y="1295" />
              <mxPoint x="-566" y="1295" />
            </Array>
          </mxGeometry>
        </mxCell>
        <mxCell id="OVD1bzsGRKaOEKY8W8DL-199" value="" style="endArrow=block;startArrow=none;endFill=0;startFill=0;endSize=8;html=1;verticalAlign=bottom;dashed=1;labelBackgroundColor=none;rounded=0;exitX=0.5;exitY=1;exitDx=0;exitDy=0;entryX=0.5;entryY=0;entryDx=0;entryDy=0;" edge="1" parent="WIyWlLk6GJQsqaUBKTNV-1" source="OVD1bzsGRKaOEKY8W8DL-192" target="OVD1bzsGRKaOEKY8W8DL-169">
          <mxGeometry width="160" relative="1" as="geometry">
            <mxPoint x="-400" y="1405" as="sourcePoint" />
            <mxPoint x="-240" y="1405" as="targetPoint" />
            <Array as="points">
              <mxPoint x="-1170" y="1295" />
              <mxPoint x="-566" y="1295" />
            </Array>
          </mxGeometry>
        </mxCell>
        <mxCell id="OVD1bzsGRKaOEKY8W8DL-200" value="&amp;lt;&amp;lt;interface&amp;gt;&amp;gt;&lt;br&gt;IStatisticsStrategy" style="swimlane;fontStyle=0;childLayout=stackLayout;horizontal=1;startSize=30;horizontalStack=0;resizeParent=1;resizeParentMax=0;resizeLast=0;collapsible=1;marginBottom=0;whiteSpace=wrap;html=1;" vertex="1" parent="WIyWlLk6GJQsqaUBKTNV-1">
          <mxGeometry x="-639" y="930" width="150" height="130" as="geometry" />
        </mxCell>
        <mxCell id="OVD1bzsGRKaOEKY8W8DL-201" value="+ ShouldApply (desiredStatistic: string): bool" style="text;html=1;strokeColor=none;fillColor=none;align=left;verticalAlign=middle;whiteSpace=wrap;rounded=0;" vertex="1" parent="OVD1bzsGRKaOEKY8W8DL-200">
          <mxGeometry y="30" width="150" height="50" as="geometry" />
        </mxCell>
        <mxCell id="OVD1bzsGRKaOEKY8W8DL-202" value="+ Apply(games: List&amp;lt;Game&amp;gt;):&amp;nbsp;List&amp;lt;Game&amp;gt;" style="text;html=1;strokeColor=none;fillColor=none;align=left;verticalAlign=middle;whiteSpace=wrap;rounded=0;" vertex="1" parent="OVD1bzsGRKaOEKY8W8DL-200">
          <mxGeometry y="80" width="150" height="50" as="geometry" />
        </mxCell>
        <mxCell id="OVD1bzsGRKaOEKY8W8DL-203" value="StatisticsHighestRating" style="swimlane;fontStyle=0;childLayout=stackLayout;horizontal=1;startSize=30;horizontalStack=0;resizeParent=1;resizeParentMax=0;resizeLast=0;collapsible=1;marginBottom=0;whiteSpace=wrap;html=1;" vertex="1" parent="WIyWlLk6GJQsqaUBKTNV-1">
          <mxGeometry x="-439" y="930" width="150" height="130" as="geometry" />
        </mxCell>
        <mxCell id="OVD1bzsGRKaOEKY8W8DL-204" value="+ ShouldApply (desiredStatistic: string): bool" style="text;html=1;strokeColor=none;fillColor=none;align=left;verticalAlign=middle;whiteSpace=wrap;rounded=0;" vertex="1" parent="OVD1bzsGRKaOEKY8W8DL-203">
          <mxGeometry y="30" width="150" height="50" as="geometry" />
        </mxCell>
        <mxCell id="OVD1bzsGRKaOEKY8W8DL-205" value="+ Apply(games: List&amp;lt;Game&amp;gt;):&amp;nbsp;List&amp;lt;Game&amp;gt;" style="text;html=1;strokeColor=none;fillColor=none;align=left;verticalAlign=middle;whiteSpace=wrap;rounded=0;" vertex="1" parent="OVD1bzsGRKaOEKY8W8DL-203">
          <mxGeometry y="80" width="150" height="50" as="geometry" />
        </mxCell>
        <mxCell id="OVD1bzsGRKaOEKY8W8DL-206" value="StatisticsMostReviews" style="swimlane;fontStyle=0;childLayout=stackLayout;horizontal=1;startSize=30;horizontalStack=0;resizeParent=1;resizeParentMax=0;resizeLast=0;collapsible=1;marginBottom=0;whiteSpace=wrap;html=1;" vertex="1" parent="WIyWlLk6GJQsqaUBKTNV-1">
          <mxGeometry x="-843" y="930" width="150" height="130" as="geometry" />
        </mxCell>
        <mxCell id="OVD1bzsGRKaOEKY8W8DL-207" value="+ ShouldApply (desiredStatistic: string): bool" style="text;html=1;strokeColor=none;fillColor=none;align=left;verticalAlign=middle;whiteSpace=wrap;rounded=0;" vertex="1" parent="OVD1bzsGRKaOEKY8W8DL-206">
          <mxGeometry y="30" width="150" height="50" as="geometry" />
        </mxCell>
        <mxCell id="OVD1bzsGRKaOEKY8W8DL-208" value="+ Apply(games: List&amp;lt;Game&amp;gt;):&amp;nbsp;List&amp;lt;Game&amp;gt;" style="text;html=1;strokeColor=none;fillColor=none;align=left;verticalAlign=middle;whiteSpace=wrap;rounded=0;" vertex="1" parent="OVD1bzsGRKaOEKY8W8DL-206">
          <mxGeometry y="80" width="150" height="50" as="geometry" />
        </mxCell>
        <mxCell id="OVD1bzsGRKaOEKY8W8DL-209" value="" style="endArrow=block;startArrow=none;endFill=0;startFill=0;endSize=8;html=1;verticalAlign=bottom;dashed=1;labelBackgroundColor=none;rounded=0;entryX=0;entryY=0.75;entryDx=0;entryDy=0;exitX=1;exitY=0.75;exitDx=0;exitDy=0;" edge="1" parent="WIyWlLk6GJQsqaUBKTNV-1" source="OVD1bzsGRKaOEKY8W8DL-207" target="OVD1bzsGRKaOEKY8W8DL-201">
          <mxGeometry width="160" relative="1" as="geometry">
            <mxPoint x="-560" y="1170" as="sourcePoint" />
            <mxPoint x="-400" y="1170" as="targetPoint" />
          </mxGeometry>
        </mxCell>
        <mxCell id="OVD1bzsGRKaOEKY8W8DL-210" value="" style="endArrow=block;startArrow=none;endFill=0;startFill=0;endSize=8;html=1;verticalAlign=bottom;dashed=1;labelBackgroundColor=none;rounded=0;entryX=1;entryY=0.75;entryDx=0;entryDy=0;exitX=0;exitY=0.75;exitDx=0;exitDy=0;" edge="1" parent="WIyWlLk6GJQsqaUBKTNV-1" source="OVD1bzsGRKaOEKY8W8DL-204" target="OVD1bzsGRKaOEKY8W8DL-201">
          <mxGeometry width="160" relative="1" as="geometry">
            <mxPoint x="-410" y="880" as="sourcePoint" />
            <mxPoint x="-356" y="880" as="targetPoint" />
          </mxGeometry>
        </mxCell>
        <mxCell id="OVD1bzsGRKaOEKY8W8DL-212" value="" style="endArrow=classic;html=1;rounded=0;exitX=0.5;exitY=0;exitDx=0;exitDy=0;entryX=0.5;entryY=1;entryDx=0;entryDy=0;" edge="1" parent="WIyWlLk6GJQsqaUBKTNV-1" source="OVD1bzsGRKaOEKY8W8DL-200" target="OVD1bzsGRKaOEKY8W8DL-152">
          <mxGeometry width="50" height="50" relative="1" as="geometry">
            <mxPoint x="-120" y="460" as="sourcePoint" />
            <mxPoint x="-70" y="410" as="targetPoint" />
            <Array as="points">
              <mxPoint x="-564" y="880" />
              <mxPoint x="-249" y="880" />
            </Array>
          </mxGeometry>
        </mxCell>
        <mxCell id="OVD1bzsGRKaOEKY8W8DL-213" value="" style="endArrow=classic;html=1;rounded=0;exitX=0.854;exitY=0.003;exitDx=0;exitDy=0;exitPerimeter=0;entryX=0.5;entryY=1;entryDx=0;entryDy=0;" edge="1" parent="WIyWlLk6GJQsqaUBKTNV-1" source="OVD1bzsGRKaOEKY8W8DL-169" target="OVD1bzsGRKaOEKY8W8DL-152">
          <mxGeometry width="50" height="50" relative="1" as="geometry">
            <mxPoint x="-450" y="1320" as="sourcePoint" />
            <mxPoint x="-400" y="1270" as="targetPoint" />
            <Array as="points">
              <mxPoint x="-495" y="1300" />
              <mxPoint x="-250" y="1300" />
            </Array>
          </mxGeometry>
        </mxCell>
      </root>
    </mxGraphModel>
  </diagram>
</mxfile>
